<?xml version="1.0" encoding="UTF-8" standalone="no"?>
<svg
   viewBox="0 0 24 24"
   version="1.1"
   id="svg4"
   sodipodi:docname="robot.svg"
   inkscape:export-xdpi="1241"
   inkscape:export-ydpi="1241"
   inkscape:version="1.4 (86a8ad7, 2024-10-11)"
   inkscape:export-filename="robot.png"
   xmlns:inkscape="http://www.inkscape.org/namespaces/inkscape"
   xmlns:sodipodi="http://sodipodi.sourceforge.net/DTD/sodipodi-0.dtd"
   xmlns="http://www.w3.org/2000/svg"
   xmlns:svg="http://www.w3.org/2000/svg">
  <defs
     id="defs8" />
  <sodipodi:namedview
     id="namedview6"
     pagecolor="#ffffff"
     bordercolor="#666666"
     borderopacity="1.0"
     inkscape:pageshadow="2"
     inkscape:pageopacity="0.0"
     inkscape:pagecheckerboard="0"
     showgrid="false"
     inkscape:zoom="32"
     inkscape:cx="17.1875"
     inkscape:cy="20.453125"
     inkscape:window-width="3840"
     inkscape:window-height="2054"
     inkscape:window-x="5749"
     inkscape:window-y="-11"
     inkscape:window-maximized="1"
     inkscape:current-layer="svg4"
     inkscape:showpageshadow="2"
     inkscape:deskcolor="#d1d1d1" />
  <path
     d="m 56.674,87.412 c 0,6.53 5.307,11.838 11.827,11.838 6.527,0 11.835,-5.308 11.835,-11.838 a 4.295,4.295 0 0 0 -4.293,-4.301 4.295,4.295 0 0 0 -4.293,4.301 3.243,3.243 0 0 1 -3.248,3.235 3.242,3.242 0 0 1 -3.241,-3.235 c 0,-2.379 -1.921,-4.301 -4.293,-4.301 -2.372,0 -4.293,1.922 -4.293,4.301 M 105.674,67.521 A 4.294,4.294 0 0 0 101.381,63.22 H 61.548 a 4.294,4.294 0 0 0 -4.293,4.301 4.295,4.295 0 0 0 4.293,4.302 h 39.833 a 4.295,4.295 0 0 0 4.293,-4.302 M 87.06,85.002 a 4.296,4.296 0 0 0 1.16,5.965 l 9.957,6.727 c 1.952,1.357 4.636,0.808 5.963,-1.145 a 4.296,4.296 0 0 0 -1.16,-5.965 L 93.023,83.858 A 4.223,4.223 0 0 0 90.628,83.11 4.32,4.32 0 0 0 87.06,85.002 m 27.268,-26.448 c 0,-0.812 -0.323,-1.591 -0.898,-2.167 l -7.4,-7.403 a 3.067,3.067 0 0 0 -2.168,-0.897 H 58.486 c -0.813,0 -1.592,0.323 -2.167,0.897 l -7.4,7.403 a 3.067,3.067 0 0 0 -0.898,2.167 v 45.36 c 0,0.814 0.323,1.593 0.897,2.167 l 7.401,7.404 a 3.066,3.066 0 0 0 2.167,0.897 h 45.377 c 0.814,0 1.593,-0.323 2.167,-0.897 l 7.401,-7.404 a 3.062,3.062 0 0 0 0.898,-2.167 z m 6.299,52.479 -9.663,9.665 a 7.808,7.808 0 0 1 -5.52,2.288 H 56.896 a 7.807,7.807 0 0 1 -5.522,-2.29 l -9.656,-9.664 a 7.81,7.81 0 0 1 -2.285,-5.521 V 56.959 c 0,-2.072 0.823,-4.06 2.287,-5.523 l 9.662,-9.665 a 7.806,7.806 0 0 1 5.521,-2.287 h 48.54 c 2.07,0 4.057,0.823 5.521,2.287 l 9.663,9.665 a 7.808,7.808 0 0 1 2.287,5.523 v 48.55 a 7.811,7.811 0 0 1 -2.287,5.524"
     style="mix-blend-mode:normal;fill:#00bfa5;fill-opacity:1"
     transform="matrix(0.22332,0,0,-0.22326,-6.127,30.137)"
     id="path2" />
</svg>
