<?xml version="1.0" encoding="UTF-8" standalone="no"?>
<!-- Created with Inkscape (http://www.inkscape.org/) -->

<svg
   width="512"
   height="512"
   viewBox="0 0 512 512"
   version="1.1"
   id="svg1"
   xml:space="preserve"
   inkscape:version="1.3.2 (091e20e, 2023-11-25, custom)"
   sodipodi:docname="RobotCodeDev_light.svg"
   inkscape:export-filename="RobotCodeDev_light.png"
   inkscape:export-xdpi="192"
   inkscape:export-ydpi="192"
   xmlns:inkscape="http://www.inkscape.org/namespaces/inkscape"
   xmlns:sodipodi="http://sodipodi.sourceforge.net/DTD/sodipodi-0.dtd"
   xmlns:xlink="http://www.w3.org/1999/xlink"
   xmlns="http://www.w3.org/2000/svg"
   xmlns:svg="http://www.w3.org/2000/svg"><sodipodi:namedview
     id="namedview1"
     pagecolor="#ffffff"
     bordercolor="#000000"
     borderopacity="0.25"
     inkscape:showpageshadow="2"
     inkscape:pageopacity="0.0"
     inkscape:pagecheckerboard="0"
     inkscape:deskcolor="#d1d1d1"
     inkscape:document-units="px"
     inkscape:zoom="0.5"
     inkscape:cx="256"
     inkscape:cy="257"
     inkscape:window-width="3840"
     inkscape:window-height="2054"
     inkscape:window-x="2293"
     inkscape:window-y="-11"
     inkscape:window-maximized="1"
     inkscape:current-layer="layer1" /><defs
     id="defs1"><linearGradient
       id="linearGradient1"
       inkscape:collect="always"><stop
         style="stop-color:#37ae71;stop-opacity:1;"
         offset="0"
         id="stop1" /><stop
         style="stop-color:#37ae71;stop-opacity:0;"
         offset="1"
         id="stop2" /></linearGradient><linearGradient
       inkscape:collect="always"
       xlink:href="#linearGradient1"
       id="linearGradient2"
       x1="272.96945"
       y1="287.14264"
       x2="271.47101"
       y2="88.933197"
       gradientUnits="userSpaceOnUse"
       gradientTransform="matrix(1,0,0,1.0267922,0,-3.3253254)" /><filter
       inkscape:collect="always"
       style="color-interpolation-filters:sRGB"
       id="filter9"
       x="-0.068060406"
       y="-0.10124013"
       width="1.1361208"
       height="1.2024803"><feGaussianBlur
         inkscape:collect="always"
         stdDeviation="0.73174233"
         id="feGaussianBlur9" /></filter><filter
       inkscape:collect="always"
       style="color-interpolation-filters:sRGB"
       id="filter22"
       x="-0.00083111526"
       y="-0.0015728484"
       width="1.0016622"
       height="1.0031457"><feGaussianBlur
         inkscape:collect="always"
         stdDeviation="0.17436155"
         id="feGaussianBlur22" /></filter></defs><g
     inkscape:label="Ebene 1"
     inkscape:groupmode="layer"
     id="layer1"><path
       d="m 258.80273,275.40263 c 2.58896,-0.99706 5.61453,-3.0585 10.75586,-5.94216 17.14539,-9.61641 47.63477,-26.81995 56.99024,-32.15545 16.20366,-9.24114 16.1914,-9.19632 16.1914,-49.53069 0,-38.53113 -0.84654,-42.68405 -10.26562,-50.31883 -7.1424,-5.78939 -33.38243,2.07834 -62.69336,18.79711 -14.70163,8.38571 -14.3212,8.40543 -32.64844,-1.72669 -22.14194,-12.24109 -37.573,-19.08174 -48.18359,-19.5632 -17.68429,-0.8024 -21.9764,16.06161 -21.61914,55.03365 0.3952,43.11118 -6.48926,34.99811 62.38672,73.52394 11.77843,6.58829 17.77582,10.2959 21.94336,11.77602 a 105.36477,83.738314 0 0 0 4.33984,0.30082 105.36477,83.738314 0 0 0 2.80273,-0.19452 z"
       style="fill:#e9e9e2;fill-rule:evenodd;stroke-width:1.31896;fill-opacity:1"
       id="path5" /><path
       d="M 258.80273,275.40263 A 105.36477,83.738314 0 0 1 256,275.59715 a 105.36477,83.738314 0 0 1 -4.33984,-0.30082 c 2.82109,1.00194 4.82247,0.99981 7.14257,0.1063 z"
       style="fill:#e3e2db;fill-rule:evenodd;stroke-width:1.31896"
       id="path19" /><ellipse
       style="fill:#36ae71;fill-opacity:0.458824;fill-rule:evenodd;stroke-width:1.24843"
       id="path4"
       cx="256"
       cy="111.15098"
       rx="50.087112"
       ry="23.160383" /><path
       d="m 195.65462,193.90312 c 0,-15.60752 12.31261,-28.29424 27.43952,-28.29424 15.1431,0 27.458,12.68672 27.458,28.29424 0.007,5.67323 -4.45306,10.27723 -9.96004,10.27988 -5.50695,-0.003 -9.96771,-4.60665 -9.96002,-10.27988 -0.01,-4.27807 -3.38298,-7.73864 -7.53564,-7.73199 -4.14686,0.001 -7.51038,3.45995 -7.51937,7.73199 0,5.68613 -4.45688,10.27988 -9.96003,10.27988 -5.50325,0 -9.96004,-4.59375 -9.96004,-10.27988 m 113.68108,35.67651 c 0.009,5.67379 -4.45255,10.27855 -9.96003,10.27989 h -92.41532 c -5.50754,-0.001 -9.96911,-4.60606 -9.96015,-10.27989 -0.009,-5.67423 4.45222,-10.27977 9.96015,-10.28235 h 92.41532 c 5.50789,0.003 9.96904,4.60816 9.96003,10.28235 m -43.18582,-29.9163 c -3.07967,-4.70236 -1.87452,-11.08647 2.69138,-14.2571 l 23.10087,-16.07833 c 4.52878,-3.24335 10.75582,-1.93117 13.8346,2.73675 3.07963,4.70232 1.87452,11.08636 -2.69126,14.25701 l -23.10097,16.07599 c -1.6336,1.1621 -3.57133,1.78558 -5.55655,1.78782 -3.31555,-0.003 -6.41461,-1.697 -8.27807,-4.52214"
       style="fill:#004e44;fill-opacity:1;stroke-width:2.35484"
       id="path1"
       sodipodi:nodetypes="cscccccscccccccccccccccc" /><path
       d="m 392.26828,160.88347 c -0.53636,0.0624 -10.93658,-1.75687 -8.69868,-0.047 7.68332,5.87029 14.98108,15.95939 16.62095,29.70464 0.97271,8.15317 8.84477,9.09254 11.65407,9.63563 3.33563,0.64482 13.85982,5.91156 19.32102,9.66807 82.01343,56.41301 42.8417,185.808 -55.00741,181.70236 -18.8375,-0.79039 -24.26436,-2.77624 -58.86474,-21.54992 -13.04637,-7.07877 -37.41231,-20.8466 -32.81753,-20.76582 9.94549,0.17484 -23.4998,-12.58233 10.83268,-34.07789 6.96839,-4.36291 -5.70586,-4.54591 -64.79762,37.52699 -67.87078,48.32352 -90.43787,45.67263 -126.22266,34.98666 C 18.330474,361.99854 12.558562,234.85485 95.837719,201.5088 c 6.206791,-2.48528 7.603581,-2.45144 13.891511,-6.91592 14.60165,-10.36735 1.00657,-24.19998 9.11503,-27.84545 20.17317,-9.06962 -0.2179,-6.43448 -10.16956,-4.34466 -75.054922,15.76127 -122.358393,98.1843 -98.541841,171.70247 20.548878,63.43134 80.666019,101.35111 142.812301,90.07968 19.74963,-3.58199 41.01348,-15.35655 95.21951,-46.86486 5.8154,-3.3803 8.46664,-2.26325 10.07319,-0.75731 1.49934,1.40539 39.73721,22.18774 61.93769,33.66403 79.47022,41.08114 164.97854,-0.71556 184.5457,-90.20767 14.97769,-68.50171 -33.92298,-143.67742 -102.22662,-157.15179 -3.92183,-0.77366 -8.10169,-1.61325 -9.28791,-1.86535 -0.44392,-0.0942 -0.75965,-0.13932 -0.93844,-0.1184 z"
       style="fill:url(#linearGradient2);fill-opacity:1;stroke:none;stroke-width:1.19546;filter:url(#filter22)"
       id="path10"
       sodipodi:nodetypes="sssscssssssssscssssssssss" /><path
       d="m 381.78298,154.07755 c -1.90243,-0.0195 -1.90234,-0.0205 0.4094,5.98002 5.08931,13.21045 3.75831,60.70621 -2.0517,73.19907 -3.66304,7.87639 -3.29342,8.53993 6.67955,11.96242 43.49244,14.92567 37.08875,79.13659 -7.88021,79.01794 -12.26247,-0.0324 -12.53127,-0.14055 -42.36365,-16.88061 -25.84316,-14.50155 -24.24288,-8.32285 -42.01271,2.43631 -21.65109,13.10917 -26.95324,20.20528 -16.21223,34.23406 4.87731,6.3702 5.6559,7.61743 9.53152,6.41107 16.64586,-13.66087 25.96639,-12.3044 44.34159,-2.72394 30.91947,15.95327 49.35657,19.29335 69.5787,12.60475 66.54012,-22.00858 70.85418,-113.23884 6.88426,-145.56857 -4.54043,-2.2947 -4.84003,-2.63953 -4.46685,-5.12912 3.40528,-22.7181 2.42163,-32.42224 -4.35183,-42.93865 -4.31689,-6.70238 -12.70829,-12.54956 -18.08584,-12.60475 z"
       style="fill:#004e44;fill-opacity:1;stroke-width:1.19546"
       id="path7"
       sodipodi:nodetypes="sssssssscssssss" /><ellipse
       style="fill:#ffffff;fill-opacity:1;fill-rule:evenodd;stroke-width:1.18148;filter:url(#filter9)"
       id="path21"
       cx="170.18764"
       cy="196.45444"
       rx="12.901639"
       ry="8.6733475"
       transform="matrix(0.92188031,-0.39785606,0.38747477,0.9465795,0,-3.3253254)" /><path
       id="path18"
       style="fill:#004e44;stroke-width:1.19546"
       d="m 253.29688,70.196606 c -41.44802,0.713194 -82.11366,23.237363 -100.92579,63.685174 -9.82841,21.13208 -11.55162,83.19631 -2.82812,101.89709 7.46537,16.00372 13.05039,20.23481 62.28125,47.1803 3.44003,1.88284 6.25391,3.84922 6.2539,4.3719 0,2.5698 -68.19415,40.57446 -75.52929,42.09246 -50.699823,10.49221 -67.272183,-62.71798 -17.95899,-79.33575 7.2272,-2.43543 7.8909,-3.77887 5.19922,-10.50255 -3.84225,-9.5979 -4.08124,-11.92481 -4.09961,-39.58164 -0.0161,-24.21101 0.13404,-27.00896 1.78907,-33.01177 2.16439,-7.85052 2.10609,-7.94374 -3.76563,-6.03642 -15.65902,5.0865 -23.36389,28.2186 -18.16601,54.54032 0.54325,2.75119 0.40699,2.90699 -4.92188,5.65939 -79.066245,40.83768 -41.34233,162.44553 45.47461,146.59263 10.79037,-1.9703 21.12845,-6.68329 41.78516,-19.0498 11.24283,-6.73071 81.62348,-48.30464 126.52929,-74.74124 50.10547,-29.49768 50.47468,-30.06306 51.00586,-78.47942 0.58132,-52.98387 -4.71358,-68.34258 -32.69531,-94.86597 -22.34287,-21.178386 -51.0685,-30.902687 -79.42773,-30.414704 z m 5.2207,24.833529 c 14.60345,0.391988 29.06583,4.458309 42.17383,12.169085 6.54027,3.84728 6.41005,4.35399 -3.10547,7.72501 -0.4273,0.15138 -0.5979,0.23327 -1.06446,0.39708 -11.52255,4.04555 -23.71247,9.63625 -33.09375,15.17927 -8.93353,5.27849 -6.46579,5.51063 -19.89843,-1.87509 -9.66841,-5.31596 -21.15622,-10.67589 -28.72071,-13.54483 -1.83129,-0.69457 -3.6429,-1.37415 -4.90039,-1.72069 -5.81117,-1.60161 -4.79113,-3.14679 5.58203,-8.44896 13.67855,-6.991761 28.42384,-10.272827 43.02735,-9.880875 z m -69.56836,39.932585 c 10.61059,0.48146 26.04165,7.32211 48.18359,19.5632 18.32724,10.13212 17.94681,10.1124 32.64844,1.72669 29.31093,-16.71877 55.55096,-24.5865 62.69336,-18.79711 9.41908,7.63478 10.26562,11.7877 10.26562,50.31883 0,40.33437 0.0123,40.28955 -16.1914,49.53069 -9.35547,5.3355 -39.84485,22.53904 -56.99024,32.15545 -5.14133,2.88366 -8.1669,4.9451 -10.75586,5.94216 -2.32008,0.89351 -4.3215,0.89564 -7.14257,-0.1063 -4.16754,-1.48012 -10.16493,-5.18773 -21.94336,-11.77602 -68.87598,-38.52583 -61.99152,-30.41276 -62.38672,-73.52394 -0.35726,-38.97204 3.93485,-55.83605 21.61914,-55.03365 z"
       sodipodi:nodetypes="ssssssscsccscsssssssssssssccsssssssssscss" /></g></svg>
