<?xml version="1.0" encoding="UTF-8" standalone="no"?>
<svg
   version="1.1"
   id="Layer_1"
   x="0px"
   y="0px"
   width="100px"
   height="100px"
   viewBox="0 0 120 110"
   style="enable-background:new 0 0 123 108"
   sodipodi:docname="logo.svg"
   inkscape:version="1.3 (0e150ed6c4, 2023-07-21)"
   xmlns:inkscape="http://www.inkscape.org/namespaces/inkscape"
   xmlns:sodipodi="http://sodipodi.sourceforge.net/DTD/sodipodi-0.dtd"
   xmlns="http://www.w3.org/2000/svg"
   xmlns:svg="http://www.w3.org/2000/svg">
  <sodipodi:namedview
     id="namedview1"
     pagecolor="#505050"
     bordercolor="#eeeeee"
     borderopacity="1"
     inkscape:showpageshadow="0"
     inkscape:pageopacity="0"
     inkscape:pagecheckerboard="0"
     inkscape:deskcolor="#d1d1d1"
     inkscape:zoom="9.095"
     inkscape:cx="-38.262782"
     inkscape:cy="44.474986"
     inkscape:window-width="3840"
     inkscape:window-height="2054"
     inkscape:window-x="2293"
     inkscape:window-y="-11"
     inkscape:window-maximized="1"
     inkscape:current-layer="Layer_1" />
  <defs
     id="defs1">
    <filter
       style="color-interpolation-filters:sRGB;"
       inkscape:label="Drop Shadow"
       id="filter4"
       x="-0.0036786791"
       y="-0.012608264"
       width="1.0226852"
       height="1.077751">
      <feFlood
         result="flood"
         in="SourceGraphic"
         flood-opacity="0.498039"
         id="feFlood3">
        <style
           id="style1">&#10;          feFlood { flood-color: white; }&#10;          @media (prefers-color-scheme: dark) {&#10;          feFlood { flood-color: white; }&#10;          }&#10;          @media (prefers-color-scheme: light) {&#10;          feFlood { flood-color: black; }&#10;          }&#10;        </style>
      </feFlood>
      <feGaussianBlur
         result="blur"
         in="SourceGraphic"
         stdDeviation="0.100000"
         id="feGaussianBlur3" />
      <feOffset
         result="offset"
         in="blur"
         dx="1.000000"
         dy="1.000000"
         id="feOffset3" />
      <feComposite
         result="comp1"
         operator="in"
         in="flood"
         in2="offset"
         id="feComposite3" />
      <feComposite
         result="comp2"
         operator="over"
         in="SourceGraphic"
         in2="comp1"
         id="feComposite4" />
    </filter>
  </defs>
  <style
     type="text/css"
     id="style2">.st0{fill-rule:evenodd;clip-rule:evenodd;}</style>
  <g
     id="g1"
     transform="translate(-1.3194062,0.13194063)">
    <style
       id="style3">&#10;      path {&#10;      fill: black;&#10;      }&#10;      @media (prefers-color-scheme: dark) {&#10;      path { fill: white; }&#10;      }&#10;      @media (prefers-color-scheme: light) {&#10;      path { fill: black; }&#10;      }&#10;    </style>
    <g
       id="g4">
      <g
         id="g5">
        <path
           d="M 61.193359,0.88085938 C 51.405326,0.71362662 47.155581,6.430138 42.148437,13.345703 l -17.892578,24.9375 c -3.728305,5.20389 -9.287224,11.499069 -7.929687,18.335938 0.60007,2.970841 2.498163,5.714452 5.970703,8.183593 C 11.662841,70.685391 6.0464939,88.363488 1,107.38867 H 23.054687 V 83.917969 c 0,-2.292073 1.879804,-4.171875 4.171875,-4.171875 h 68.427735 c 2.292073,0 4.169922,1.879802 4.169922,4.171875 V 107.38867 H 121.88086 L 115.61328,86.720703 C 112.79983,77.267135 107.95962,69.988636 100.89648,65.109375 112.80936,52.665291 103.11112,45.787544 95.625,35.261719 90.844111,28.50355 86.052374,21.756216 81.271484,14.998047 75.929875,7.4528987 71.817558,1.0677666 61.193359,0.88085938 Z M 50.021484,29.035156 c 7.925166,1.92937 15.027324,1.924567 23.199219,0 0.98945,2.95e-4 1.937211,0.420349 2.636719,1.167969 l 4.617187,4.933594 c 0.699947,0.748005 1.093951,1.762623 1.09375,2.820312 v 24.78711 c 2.3e-4,1.057544 -0.393788,2.070576 -1.09375,2.818359 l -4.617187,4.935547 c -0.699586,0.747406 -1.649504,1.167969 -2.638672,1.167969 H 50.023437 c -0.989568,8.8e-5 -1.937074,-0.420316 -2.636718,-1.167969 L 42.769531,65.5625 c -0.699584,-0.746897 -1.09375,-1.760554 -1.09375,-2.818359 v -24.78711 c -1.26e-4,-1.057021 0.392511,-2.070595 1.091797,-2.818359 l 4.615234,-4.933594 c 0.699558,-0.748292 1.648744,-1.169684 2.638672,-1.169922 z m 0.759766,4.392578 c -0.388341,-3e-6 -0.760432,0.165752 -1.035156,0.458985 l -3.53711,3.779297 c -0.274295,0.293039 -0.429687,0.689904 -0.429687,1.105468 v 23.158203 c 1.76e-4,0.414948 0.155088,0.812017 0.429687,1.105469 l 3.53711,3.779297 c 0.274767,0.293049 0.646653,0.458984 1.035156,0.458984 h 21.683594 c 0.388494,8.2e-5 0.760283,-0.165673 1.035156,-0.458984 l 3.537109,-3.779297 c 0.274776,-0.29406 0.427735,-0.690924 0.427735,-1.105469 l 0.002,-23.158203 c 8.6e-5,-0.415002 -0.154865,-0.812175 -0.429688,-1.105468 L 73.5,33.886719 c -0.274293,-0.293049 -0.649849,-0.512295 -1.035156,-0.458985 -7.345942,1.631497 -14.415555,1.551393 -21.683594,0 z m 4.785156,7.72461 c 3.118986,0 5.65625,2.711196 5.65625,6.044922 0.0016,1.211792 -0.918475,2.194749 -2.052734,2.195312 -1.134259,-5.62e-4 -2.052365,-0.98352 -2.050781,-2.195312 -0.0021,-0.913781 -0.69742,-1.653755 -1.552735,-1.652344 -0.854118,2.79e-4 -1.546984,0.739842 -1.548828,1.652344 0,1.214536 -0.917299,2.195312 -2.050781,2.195312 -1.133482,0 -2.050781,-0.980776 -2.050781,-2.195312 h -0.002 c 0,-3.333726 2.536704,-6.044922 5.652344,-6.044922 z m 15.326172,0.412109 c 0.659216,6.08e-4 1.308755,0.343637 1.705078,0.966797 0.63431,1.004409 0.385723,2.369631 -0.554687,3.046875 l -4.757813,3.433594 c -0.336466,0.248225 -0.735638,0.380382 -1.144531,0.380859 -0.682891,-8.65e-4 -1.321269,-0.361404 -1.705078,-0.964844 -0.634306,-1.004409 -0.385723,-2.36963 0.554687,-3.046875 l 4.757813,-3.433593 c 0.349792,-0.259794 0.749002,-0.383177 1.144531,-0.382813 z m 2.517578,12.488281 c 0.226955,-0.09224 0.343044,0.07172 0.28711,0.833985 0.0018,1.211911 -1.2836,4.659875 -2.417969,4.660156 H 52.244141 c -1.134368,-2.81e-4 -2.374896,-3.192387 -2.373047,-4.404297 0.04029,-2.306285 1.238601,0.01424 2.373047,0.01367 l 19.392578,-0.08398 c 0.709029,3.51e-4 1.39518,-0.8658 1.773437,-1.019532 z"
           style="clip-rule:evenodd;fill-rule:evenodd"
           id="path4" />
        <path
           d="m 36.335798,100.87822 h 4.339839 q 0.501301,0 0.859374,0.35807 0.372395,0.34375 0.372395,0.84506 0,0.5013 -0.372395,0.85937 -0.358073,0.34375 -0.859374,0.34375 h -4.497391 q -0.859374,0 -1.776039,-0.54427 -0.916666,-0.54427 -1.274739,-1.21745 l -2.778642,-5.371085 q -0.558593,-1.160155 -0.558593,-2.377601 0,-1.346353 0.529947,-2.334633 l 2.807288,-5.313796 q 0.401042,-0.744791 1.246093,-1.303384 0.845051,-0.572916 1.63281,-0.572916 h 4.755203 q 0.501302,0 0.845051,0.358073 0.358073,0.358072 0.358073,0.845051 0,0.501301 -0.358073,0.873697 -0.343749,0.358072 -0.845051,0.358072 h -4.583328 q -0.572916,0 -0.930988,0.673177 l -2.66406,4.984369 q -0.315104,0.587239 -0.315104,1.389321 0,0.845051 0.34375,1.489582 l 2.549476,4.898433 q 0.358073,0.75911 1.174478,0.75911 z m 20.023415,-14.867168 2.649737,5.399733 q 0.558593,1.102864 0.558593,2.391925 0,1.260415 -0.558593,2.377601 l -2.649737,5.342439 q -0.845051,1.76172 -2.86458,1.76172 -0.959634,0 -1.733071,-0.5013 -0.759113,-0.5013 -1.145832,-1.26042 l -2.664059,-5.342439 q -0.529948,-1.045572 -0.529948,-2.377601 0,-1.33203 0.529948,-2.391925 l 2.664059,-5.399733 q 0.902343,-1.761717 2.878903,-1.761717 2.005206,0 2.86458,1.761717 z m -3.666662,1.203124 -2.492185,5.070306 q -0.343749,0.759114 -0.343749,1.489582 0,0.787759 0.343749,1.503904 l 2.563799,5.127602 q 0.200521,0.47265 0.730468,0.47265 0.458333,0 0.701822,-0.47265 l 2.578122,-5.127602 q 0.358073,-0.759113 0.358073,-1.503904 0,-0.78776 -0.358073,-1.489582 l -2.52083,-5.070306 q -0.243489,-0.558594 -0.759114,-0.558594 -0.515624,0 -0.802082,0.558594 z m 13.649724,-2.964841 h 4.755203 q 0.930989,0.01432 1.804686,0.601562 0.888019,0.587239 1.303384,1.417967 l 2.377601,4.812495 q 0.673176,1.303384 0.673176,2.721351 0,1.317706 -0.716145,2.707028 l -2.391924,4.755202 q -0.458333,0.91667 -1.317707,1.47526 -0.859374,0.54427 -1.919269,0.54427 h -4.59765 q -0.501302,0 -0.859374,-0.35807 -0.34375,-0.35808 -0.34375,-0.84505 0,-0.50131 0.34375,-0.85938 0.358072,-0.37239 0.859374,-0.37239 h 1.260415 V 86.684228 h -1.23177 q -0.501301,0 -0.859374,-0.358072 -0.343749,-0.372396 -0.343749,-0.873697 0,-0.486979 0.343749,-0.845051 0.358073,-0.358073 0.859374,-0.358073 z m 3.638017,2.434893 v 14.193992 h 0.845051 q 0.802082,0 1.203124,-0.78776 l 2.377601,-4.726554 q 0.44401,-0.930989 0.44401,-1.561196 0,-0.78776 -0.358072,-1.489582 l -2.463539,-4.898432 q -0.386719,-0.730468 -1.260416,-0.730468 z m 23.818982,0 h -8.507803 v 5.858066 h 3.666662 q 0.486979,0 0.845052,0.358073 0.358072,0.358072 0.358072,0.845051 0,0.515624 -0.358072,0.873697 -0.34375,0.358072 -0.845052,0.358072 h -3.666662 v 5.901033 h 8.536449 q 0.486978,0 0.845051,0.35807 0.358072,0.34375 0.358072,0.84506 0,0.5013 -0.372395,0.85937 -0.358073,0.34375 -0.859374,0.34375 H 82.885224 V 84.249335 h 10.91405 q 0.501301,0 0.859374,0.372396 0.372395,0.358072 0.372395,0.859374 0,0.486978 -0.372395,0.845051 -0.358073,0.358072 -0.859374,0.358072 z"
           id="text1"
           style="filter:url(#filter4)"
           aria-label="CODE" />
      </g>
    </g>
  </g>
</svg>
