<?xml version="1.0" encoding="UTF-8" standalone="no"?>
<!-- Created with Inkscape (http://www.inkscape.org/) -->

<svg
        width="512"
        height="512"
        viewBox="0 0 512 512"
        version="1.1"
        id="svg1"
        xml:space="preserve"
        inkscape:version="1.3.2 (091e20e, 2023-11-25, custom)"
        sodipodi:docname="RobotCode_light.svg"
        inkscape:export-filename="RobotCode_light.png"
        inkscape:export-xdpi="192"
        inkscape:export-ydpi="192"
        xmlns:inkscape="http://www.inkscape.org/namespaces/inkscape"
        xmlns:sodipodi="http://sodipodi.sourceforge.net/DTD/sodipodi-0.dtd"
        xmlns:xlink="http://www.w3.org/1999/xlink"
        xmlns="http://www.w3.org/2000/svg"
><sodipodi:namedview
     id="namedview1"
     pagecolor="#ffffff"
     bordercolor="#000000"
     borderopacity="0.25"
     inkscape:showpageshadow="2"
     inkscape:pageopacity="0.0"
     inkscape:pagecheckerboard="0"
     inkscape:deskcolor="#d1d1d1"
     inkscape:document-units="px"
     inkscape:zoom="2.8284271"
     inkscape:cx="237.58788"
     inkscape:cy="311.65732"
     inkscape:window-width="3840"
     inkscape:window-height="2054"
     inkscape:window-x="2869"
     inkscape:window-y="-11"
     inkscape:window-maximized="1"
     inkscape:current-layer="layer1" />
    <defs
            id="defs1"><filter
       inkscape:collect="always"
       style="color-interpolation-filters:sRGB"
       id="filter9"
       x="-0.068060406"
       y="-0.10124013"
       width="1.1361208"
       height="1.2024803"><feGaussianBlur
         inkscape:collect="always"
         stdDeviation="0.73174233"
         id="feGaussianBlur9" /></filter>
        <linearGradient
                inkscape:collect="always"
                xlink:href="#linearGradient1"
                id="linearGradient2"
                x1="272.96945"
                y1="287.14264"
                x2="271.47101"
                y2="88.933197"
                gradientUnits="userSpaceOnUse"
                gradientTransform="matrix(1,0,0,1.0267922,-0.237861,39.39363)"/>
        <linearGradient
                id="linearGradient1"
                inkscape:collect="always"><stop
         style="stop-color:#37ae71;stop-opacity:1;"
         offset="0"
         id="stop1" />
            <stop
                    style="stop-color:#37ae71;stop-opacity:0;"
                    offset="1"
                    id="stop2"/></linearGradient>
        <filter
                inkscape:collect="always"
                style="color-interpolation-filters:sRGB"
                id="filter22"
                x="-0.00083111526"
                y="-0.0015728484"
                width="1.0016622"
                height="1.0031457"><feGaussianBlur
         inkscape:collect="always"
         stdDeviation="0.17436155"
         id="feGaussianBlur22" /></filter></defs>
    <g
            inkscape:label="Ebene 1"
            inkscape:groupmode="layer"
            id="layer1"><path
       d="m 392.03042,203.60243 c -0.53636,0.0624 -10.93658,-1.75687 -8.69868,-0.047 7.68332,5.87029 14.98108,15.95939 16.62095,29.70464 0.97271,8.15317 8.84477,9.09254 11.65407,9.63563 3.33563,0.64482 13.85982,5.91156 19.32102,9.66807 82.01343,56.41301 42.8417,185.808 -55.00741,181.70236 -18.8375,-0.79039 -24.26436,-2.77624 -58.86474,-21.54992 -13.04637,-7.07877 -37.41231,-20.8466 -32.81753,-20.76582 9.94549,0.17484 -23.4998,-12.58233 10.83268,-34.07789 6.96839,-4.36291 -5.70586,-4.54591 -64.79762,37.52699 -67.87078,48.32352 -90.43787,45.67263 -126.22266,34.98666 C 18.092613,404.7175 12.320701,277.57381 95.59986,244.22776 c 6.20679,-2.48528 7.60358,-2.45144 13.89151,-6.91592 14.60165,-10.36735 1.00657,-24.19998 9.11503,-27.84545 20.17317,-9.06962 -0.2179,-6.43448 -10.16956,-4.34466 C 33.381917,220.883 -13.921554,303.30603 9.894998,376.8242 30.443876,440.25554 90.56102,478.17531 152.7073,466.90388 c 19.74963,-3.58199 41.01348,-15.35655 95.21951,-46.86486 5.8154,-3.3803 8.46664,-2.26325 10.07319,-0.75731 1.49934,1.40539 39.73721,22.18774 61.93769,33.66403 79.47022,41.08114 164.97854,-0.71556 184.5457,-90.20767 14.97769,-68.50171 -33.92298,-143.67742 -102.22662,-157.15179 -3.92183,-0.77366 -8.10169,-1.61325 -9.28791,-1.86535 -0.44392,-0.0942 -0.75965,-0.13932 -0.93844,-0.1184 z"
       style="fill:url(#linearGradient2);fill-opacity:1;stroke:none;stroke-width:1.19546;filter:url(#filter22)"
       id="path10"
       sodipodi:nodetypes="sssscssssssssscssssssssss" />
        <path
                d="m 268.6091,419.46936 c 4.5704,-1.76015 9.91158,-5.3993 18.98779,-10.48996 30.26754,-16.97628 84.0918,-47.34645 100.60743,-56.76546 28.60506,-16.31379 28.58341,-16.23467 28.58341,-87.43875 0,-68.02072 -1.49444,-75.35206 -18.12235,-88.83007 -12.60881,-10.22028 -58.93151,3.66898 -110.6754,33.18338 -25.95346,14.80366 -25.28187,14.83848 -57.63576,-3.0482 -39.08816,-21.60976 -66.32929,-33.68585 -85.06065,-34.5358 -31.21887,-1.41652 -38.79592,28.35428 -38.16525,97.15337 0.69767,76.10608 -11.455757,61.78372 110.13409,129.7951 20.79299,11.63061 31.38044,18.17582 38.73759,20.78874 a 186.00515,147.82699 0 0 0 7.66132,0.53105 186.00515,147.82699 0 0 0 4.94778,-0.3434 z"
                style="fill:#e9e9e2;fill-opacity:1;fill-rule:evenodd;stroke-width:2.32842"
                id="path5"/>
        <path
                d="m 268.6091,419.46936 a 186.00515,147.82699 0 0 1 -4.94778,0.3434 A 186.00515,147.82699 0 0 1 256,419.28171 c 4.98019,1.76877 8.51333,1.76502 12.6091,0.18765 z"
                style="fill:#e3e2db;fill-rule:evenodd;stroke-width:2.32842"
                id="path19"/>
        <ellipse
                style="fill:#36ae71;fill-opacity:0.458824;fill-rule:evenodd;stroke-width:2.20391"
                id="path4"
                cx="263.66129"
                cy="129.50858"
                rx="88.421028"
                ry="40.886066"/>
        <path
                d="m 157.13091,275.59462 c 0,-27.55265 21.73601,-49.94907 48.44022,-49.94907 26.73278,0 48.47282,22.39642 48.47282,49.94907 0.0129,10.01522 -7.86118,18.14286 -17.5829,18.14754 -9.72166,-0.005 -17.59643,-8.13232 -17.58286,-18.14754 -0.0176,-7.55226 -5.97213,-13.66136 -13.303,-13.64962 -7.32064,0.001 -13.25841,6.10801 -13.27428,13.64962 0,10.03799 -7.86793,18.14754 -17.58289,18.14754 -9.71513,0 -17.5829,-8.10955 -17.5829,-18.14754 m 200.6863,62.98135 c 0.0158,10.01619 -7.86028,18.14518 -17.58289,18.14754 H 177.09364 c -9.72272,-10e-4 -17.59893,-8.13128 -17.58312,-18.14754 -0.0158,-10.01697 7.85971,-18.14734 17.58312,-18.15189 h 163.14489 c 9.72333,0.005 17.59879,8.13498 17.58289,18.15189 M 281.58355,285.7634 c -5.43668,-8.30131 -3.30917,-19.57147 4.75122,-25.16871 l 40.78099,-28.38379 c 7.99487,-5.72564 18.98774,-3.40919 24.42285,4.8313 5.4366,8.30122 3.30917,19.57125 -4.751,25.16854 l -40.78119,28.37967 c -2.88386,2.0515 -6.30462,3.15216 -9.80922,3.15611 -5.85309,-0.005 -11.324,-2.99579 -14.61365,-7.98312"
                style="fill:#004e44;fill-opacity:1;stroke-width:4.15711"
                id="path1"
                sodipodi:nodetypes="cscccccscccccccccccccccc"/>
        <ellipse
                style="fill:#ffffff;fill-opacity:1;fill-rule:evenodd;stroke-width:1.18148;filter:url(#filter9)"
                id="path21"
                cx="170.18764"
                cy="196.45444"
                rx="12.901639"
                ry="8.6733475"
                transform="matrix(1.6274366,-0.70235312,0.68402657,1.6710392,-188.26695,-72.581581)"/>
        <path
                id="path18"
                style="fill:#004e44;stroke-width:2.1104"
                d="M 258.88938,57.209978 C 185.71932,58.469011 113.93045,98.23193 80.720553,169.63627 c -17.35052,37.30542 -20.392579,146.87017 -4.9926,179.8835 13.17895,28.25208 68.473657,63.44371 109.947867,83.28949 76.25198,36.48727 80.49462,35.42661 147.34909,2.04688 29.71792,-14.83785 92.17332,-55.94636 112.4451,-80.6075 15.12439,-18.39921 10.64326,-44.85854 11.35519,-75.87508 2.1465,-93.51579 -8.32109,-120.64821 -57.7185,-167.47115 C 359.66384,73.515262 308.95319,56.348519 258.88938,57.209978 Z m 9.21633,43.839742 c 25.78012,0.692 51.31121,7.87046 74.45136,21.48263 11.54581,6.79177 11.31595,7.6863 -5.48224,13.6373 -0.75433,0.26725 -1.05549,0.41181 -1.87913,0.701 -20.34127,7.14179 -41.86068,17.01129 -58.42188,26.79663 -15.77076,9.31836 -11.41436,9.72816 -35.1276,-3.31017 -17.06806,-9.38451 -37.34802,-18.84663 -50.70194,-23.9113 -3.23287,-1.22616 -6.43098,-2.42585 -8.6509,-3.03761 -10.25871,-2.82739 -8.45798,-5.55518 9.85422,-14.91532 24.14736,-12.34288 50.17788,-18.13509 75.95811,-17.44316 z M 145.29357,171.5445 c 18.73136,0.84995 45.97249,12.92604 85.06065,34.5358 32.35389,17.88668 31.6823,17.85186 57.63576,3.0482 51.74389,-29.5144 98.06659,-43.40366 110.6754,-33.18338 16.62791,13.47801 18.12235,20.80935 18.12235,88.83007 0,71.20408 0.0217,71.12496 -28.58341,87.43875 -16.51563,9.41901 -70.33989,39.78918 -100.60743,56.76546 -9.07621,5.09066 -14.41739,8.72981 -18.98779,10.48996 -4.09573,1.57737 -7.62894,1.58112 -12.6091,-0.18765 -7.35715,-2.61292 -17.9446,-9.15813 -38.73759,-20.78874 -121.589847,-68.01138 -109.43642,-53.68902 -110.13409,-129.7951 -0.63067,-68.79909 6.94638,-98.56989 38.16525,-97.15337 z"
                sodipodi:nodetypes="ssssssssssssssssccsssssssssscss"/></g></svg>
