<svg xmlns="http://www.w3.org/2000/svg" viewBox="40 40 122.433 122.341" height="80" width="80"><defs><clipPath id="prefix__a" clipPathUnits="userSpaceOnUse"><path d="M0 161.873h161.946V0H0v161.873z"/></clipPath></defs><g clip-path="url(#prefix__a)" transform="matrix(1.25 0 0 -1.25 0 202.341)"><path d="M52.448 88.127c0 7.6 6.179 13.779 13.77 13.779 7.6 0 13.779-6.18 13.779-13.78a5 5 0 00-4.998-5.006 5 5 0 00-5 5.007c0 2.078-1.694 3.765-3.781 3.765a3.774 3.774 0 01-3.773-3.765 5 5 0 10-9.997 0m57.05-23.153a4.998 4.998 0 00-4.998-5.007H58.122a5 5 0 00-5 5.007 5 5 0 005 5.007H104.5a5 5 0 004.998-5.007M87.827 85.322a5 5 0 001.35 6.943l11.594 7.83c2.273 1.58 5.398.94 6.943-1.332a5 5 0 00-1.35-6.943L94.77 83.99a4.918 4.918 0 00-2.788-.87 5.031 5.031 0 00-4.155 2.202m31.748-30.786a3.57 3.57 0 00-1.045-2.522l-8.617-8.617a3.571 3.571 0 00-2.523-1.045H54.557c-.947 0-1.854.377-2.523 1.045l-8.617 8.617a3.57 3.57 0 00-1.045 2.522v52.799c0 .947.376 1.854 1.045 2.522l8.617 8.619a3.57 3.57 0 002.523 1.044h52.833a3.57 3.57 0 002.523-1.044l8.617-8.62a3.563 3.563 0 001.045-2.521v-52.8zm7.334 61.086l-11.25 11.25a9.092 9.092 0 01-6.428 2.663H52.708a9.091 9.091 0 01-6.43-2.665l-11.242-11.25a9.09 9.09 0 01-2.661-6.426V52.679c0-2.411.958-4.725 2.663-6.428L46.288 35a9.09 9.09 0 016.428-2.662h56.515c2.41 0 4.723.957 6.428 2.662l11.25 11.25a9.087 9.087 0 012.663 6.428v56.514a9.091 9.091 0 01-2.663 6.429"/></g></svg>