<?xml version="1.0" encoding="UTF-8" standalone="no"?>
<!-- Created with Inkscape (http://www.inkscape.org/) -->

<svg
   width="512"
   height="512"
   viewBox="0 0 512 512"
   version="1.1"
   id="svg1"
   xml:space="preserve"
   inkscape:version="1.4 (e7c3feb1, 2024-10-09)"
   sodipodi:docname="RobotCodeDev_light_text.svg"
   inkscape:export-filename="RobotCodeDev_light_text.png"
   inkscape:export-xdpi="768"
   inkscape:export-ydpi="768"
   xmlns:inkscape="http://www.inkscape.org/namespaces/inkscape"
   xmlns:sodipodi="http://sodipodi.sourceforge.net/DTD/sodipodi-0.dtd"
   xmlns="http://www.w3.org/2000/svg"
   xmlns:svg="http://www.w3.org/2000/svg"><sodipodi:namedview
     id="namedview1"
     pagecolor="#ffffff"
     bordercolor="#000000"
     borderopacity="0.25"
     inkscape:showpageshadow="2"
     inkscape:pageopacity="0.0"
     inkscape:pagecheckerboard="0"
     inkscape:deskcolor="#d1d1d1"
     inkscape:document-units="px"
     inkscape:zoom="1.5912045"
     inkscape:cx="174.08196"
     inkscape:cy="229.38598"
     inkscape:window-width="1968"
     inkscape:window-height="1105"
     inkscape:window-x="2798"
     inkscape:window-y="164"
     inkscape:window-maximized="0"
     inkscape:current-layer="layer1" /><defs
     id="defs1" /><g
     inkscape:label="Ebene 1"
     inkscape:groupmode="layer"
     id="layer1"><path
       d="m 256.53981,320.61589 c 2.87471,-1.12709 6.23421,-3.45738 11.94299,-6.71712 19.03774,-10.87057 52.89224,-30.31776 63.28028,-36.3491 17.99207,-10.44635 17.97845,-10.39569 17.97845,-55.99039 0,-43.55628 -0.93997,-48.25082 -11.39864,-56.88131 -7.93071,-6.54443 -37.06686,2.34939 -69.61285,21.24859 -16.32426,9.47936 -15.90184,9.50165 -36.25186,-1.95188 -24.58576,-13.83755 -41.71995,-21.57034 -53.50164,-22.11459 -19.63611,-0.90705 -24.40194,18.15633 -24.00525,62.21103 0.43882,48.73365 -7.20549,39.56249 69.27237,83.11278 13.07842,7.44753 19.73774,11.63867 24.36526,13.31183 a 116.99393,94.659299 0 0 0 4.81883,0.34005 116.99393,94.659299 0 0 0 3.11206,-0.21989 z"
       style="fill:#e9e9e2;fill-opacity:1;fill-rule:evenodd;stroke-width:1.4777"
       id="path5" /><path
       d="m 256.53981,320.61589 a 116.99393,94.659299 0 0 1 -3.11206,0.21989 116.99393,94.659299 0 0 1 -4.81883,-0.34005 c 3.13245,1.13261 5.35472,1.1302 7.93089,0.12016 z"
       style="fill:#e3e2db;fill-rule:evenodd;stroke-width:1.4777"
       id="path19" /><ellipse
       style="fill:#36ae71;fill-opacity:0.458824;fill-rule:evenodd;stroke-width:1.39868"
       id="path4"
       cx="253.42773"
       cy="134.94287"
       rx="55.61525"
       ry="26.180914" /><path
       d="m 186.42202,228.48738 c 0,-17.64302 13.67156,-31.98432 30.46803,-31.98432 16.81445,0 30.48855,14.3413 30.48855,31.98432 0.008,6.41312 -4.94454,11.61756 -11.05933,11.62056 -6.11476,-0.003 -11.06785,-5.20744 -11.05931,-11.62056 -0.0111,-4.83601 -3.75636,-8.7479 -8.36735,-8.74038 -4.60456,10e-4 -8.33931,3.91119 -8.34929,8.74038 0,6.4277 -4.94879,11.62056 -11.05932,11.62056 -6.11065,0 -11.05934,-5.19286 -11.05934,-11.62056 m 126.22811,40.32937 c 0.01,6.41375 -4.94398,11.61906 -11.05932,11.62057 H 198.97821 c -6.11541,-10e-4 -11.0694,-5.20677 -11.05946,-11.62057 -0.01,-6.41425 4.94362,-11.62044 11.05946,-11.62336 h 102.61524 c 6.1158,0.003 11.06933,5.20915 11.05932,11.62336 m -47.95225,-33.81793 c -3.41958,-5.31563 -2.08142,-12.53234 2.98842,-16.11648 l 25.65053,-18.17523 c 5.02862,-3.66635 11.94294,-2.18303 15.36153,3.09367 3.41953,5.31558 2.08141,12.53222 -2.9883,16.11638 l -25.65063,18.17259 c -1.8139,1.31366 -3.9655,2.01845 -6.16983,2.02098 -3.68149,-0.003 -7.12259,-1.91832 -9.19172,-5.11191"
       style="fill:#007b6a;fill-opacity:1;stroke-width:2.63824"
       id="path1"
       sodipodi:nodetypes="cscccccscccccccccccccccc" /><path
       d="m 393.09345,183.46784 c -2.1124,-0.0221 -2.1123,-0.0232 0.45459,6.75992 5.65101,14.93333 4.17311,68.62339 -2.27815,82.74555 -4.06733,8.90361 -3.65692,9.65369 7.41677,13.52253 48.29272,16.87225 41.18226,89.45743 -8.74995,89.3233 -13.61588,-0.0366 -13.91435,-0.15888 -47.03934,-19.08214 -28.69549,-16.39282 -26.91858,-9.4083 -46.64968,2.75405 -24.04073,14.81884 -29.92808,22.84041 -18.00158,38.6988 5.41562,7.20098 6.28015,8.61088 10.58352,7.24718 18.48307,-15.44249 28.83231,-13.90911 49.23559,-3.07919 34.33207,18.03387 54.80408,21.80955 77.25813,14.24864 73.88419,-24.8789 78.67439,-128.00723 7.64408,-164.55333 -5.04156,-2.59397 -5.37422,-2.98378 -4.95985,-5.79805 3.78112,-25.68095 2.6889,-36.65069 -4.83215,-48.53863 -4.79335,-7.57649 -14.11091,-14.18625 -20.08198,-14.24863 z"
       style="fill:#007b6a;fill-opacity:1;stroke-width:1.33933"
       id="path7"
       sodipodi:nodetypes="sssssssscssssss" /><ellipse
       style="fill:#ffffff;fill-opacity:1;fill-rule:evenodd;stroke-width:1.34162"
       id="path21"
       cx="159.59947"
       cy="219.23372"
       rx="14.424961"
       ry="10.002864"
       transform="matrix(0.91553018,-0.40224929,0.37305572,0.92780894,0,0)" /><path
       id="path18"
       style="fill:#007b6a;stroke-width:1.33933;fill-opacity:1"
       d="m 250.42628,88.647304 c -46.02266,0.806207 -91.17658,26.267936 -112.06501,71.990866 -10.91318,23.88809 -12.82658,94.04661 -3.14026,115.18631 8.28932,18.09089 14.49076,22.87379 69.15526,53.33346 3.8197,2.1284 6.94415,4.35123 6.94414,4.94208 0,2.90494 -75.72077,45.8661 -83.86549,47.58207 -56.295581,11.86058 -74.69704,-70.89753 -19.94113,-89.68256 8.02487,-2.75305 8.76182,-4.2717 5.77306,-11.87227 -4.26632,-10.84964 -4.53169,-13.48002 -4.55209,-44.7438 -0.0179,-27.36856 0.14884,-30.53142 1.98653,-37.3171 2.40328,-8.87437 2.33854,-8.97975 -4.18124,-6.82368 -17.387305,5.74987 -25.942565,31.89881 -20.170995,61.65336 0.60321,3.11 0.45191,3.28612 -5.46511,6.39748 -87.7928254,46.16365 -45.905304,183.63135 50.493655,165.71095 11.98131,-2.22726 23.46041,-7.55491 46.39701,-21.53424 12.4837,-7.60851 90.6323,-54.60443 140.49438,-84.48884 55.63564,-33.34471 56.04559,-33.98383 56.6354,-88.71455 0.64548,-59.89393 -5.23382,-77.25569 -36.3039,-107.23821 C 313.81162,99.088206 281.91553,88.095679 250.42628,88.647304 Z m 5.79691,28.072276 c 16.21524,0.4431 32.27384,5.03974 46.82858,13.75615 7.26212,4.34903 7.11753,4.92183 -3.44823,8.73249 -0.47446,0.17112 -0.66389,0.26369 -1.18194,0.44886 -12.7943,4.57317 -26.32963,10.89299 -36.74632,17.15892 -9.91953,5.9669 -7.17942,6.22932 -22.09463,-2.11963 -10.73552,-6.00926 -23.49124,-12.06822 -31.89063,-15.31132 -2.03341,-0.78516 -4.04497,-1.55337 -5.44125,-1.9451 -6.45255,-1.81049 -5.31993,-3.55719 6.19812,-9.55086 15.18826,-7.90361 31.561,-11.61259 47.7763,-11.16951 z m -77.24665,45.14051 c 11.78169,0.54425 28.91588,8.27704 53.50164,22.11459 20.35002,11.45353 19.9276,11.43124 36.25186,1.95188 32.54599,-18.8992 61.68214,-27.79302 69.61285,-21.24859 10.45867,8.63049 11.39864,13.32503 11.39864,56.88131 0,45.5947 0.0137,45.54404 -17.97845,55.99039 -10.38804,6.03134 -44.24254,25.47853 -63.28028,36.3491 -5.70878,3.25974 -9.06828,5.59003 -11.94299,6.71712 -2.57614,1.01004 -4.79846,1.01245 -7.93089,-0.12016 -4.62752,-1.67316 -11.28684,-5.8643 -24.36526,-13.31183 -76.47786,-43.55029 -68.83355,-34.37913 -69.27237,-83.11278 -0.39669,-44.0547 4.36914,-63.11808 24.00525,-62.21103 z"
       sodipodi:nodetypes="ssssssscsccscsssssssssssssccsssssssssscss" /><text
       xml:space="preserve"
       style="font-style:normal;font-variant:normal;font-weight:normal;font-stretch:normal;font-size:72.8702px;font-family:'OCR-A BT';-inkscape-font-specification:'OCR-A BT, Normal';font-variant-ligatures:normal;font-variant-caps:normal;font-variant-numeric:normal;font-variant-east-asian:normal;fill:#007b6a;fill-opacity:1;fill-rule:evenodd;stroke-width:6.48759;stroke-dasharray:25.9503, 6.48759"
       x="3.378144"
       y="51.765709"
       id="text1"
       transform="scale(0.9324261,1.072471)"><tspan
         sodipodi:role="line"
         id="tspan5"
         x="3.378144"
         y="51.765709"
         style="stroke-width:6.48759">ROBOTCODEDEV</tspan></text></g></svg>
