<svg width="512" height="512" xmlns="http://www.w3.org/2000/svg"><path d="M256.54 320.616c2.875-1.127 6.234-3.457 11.943-6.717 19.038-10.87 52.892-30.318 63.28-36.35 17.992-10.446 17.979-10.395 17.979-55.99 0-43.556-.94-48.25-11.4-56.881-7.93-6.544-37.066 2.35-69.612 21.249-16.324 9.479-15.902 9.501-36.252-1.952-24.586-13.838-41.72-21.57-53.501-22.115-19.637-.907-24.402 18.156-24.006 62.211.44 48.734-7.205 39.563 69.273 83.113 13.078 7.447 19.737 11.639 24.365 13.312a116.994 94.66 0 004.819.34 116.994 94.66 0 003.112-.22z" fill="#e9e9e2" fill-rule="evenodd"/><path d="M256.54 320.616a116.994 94.66 0 01-3.112.22 116.994 94.66 0 01-4.82-.34c3.133 1.132 5.356 1.13 7.932.12z" fill="#e3e2db" fill-rule="evenodd"/><ellipse cx="253.428" cy="134.943" rx="55.615" ry="26.181" fill="#36ae71" fill-opacity=".459" fill-rule="evenodd"/><path d="M186.422 228.487c0-17.643 13.672-31.984 30.468-31.984 16.815 0 30.489 14.341 30.489 31.984.008 6.414-4.945 11.618-11.06 11.62-6.114-.002-11.068-5.206-11.059-11.62-.011-4.836-3.756-8.748-8.367-8.74-4.605.001-8.34 3.911-8.35 8.74 0 6.428-4.948 11.62-11.059 11.62-6.11 0-11.06-5.192-11.06-11.62m126.229 40.33c.01 6.414-4.944 11.619-11.06 11.62H198.978c-6.115 0-11.07-5.206-11.06-11.62-.01-6.414 4.944-11.62 11.06-11.624h102.615c6.116.003 11.07 5.21 11.06 11.624M264.7 234.999c-3.42-5.316-2.082-12.533 2.988-16.117l25.65-18.175c5.03-3.666 11.943-2.183 15.362 3.094 3.42 5.315 2.081 12.532-2.988 16.116l-25.65 18.173a10.53 10.53 0 01-6.17 2.02c-3.682-.002-7.123-1.918-9.192-5.111M393.093 183.468c-2.112-.022-2.112-.023.455 6.76 5.651 14.933 4.173 68.623-2.278 82.745-4.067 8.904-3.657 9.654 7.417 13.523 48.292 16.872 41.182 89.457-8.75 89.323-13.616-.036-13.915-.159-47.04-19.082-28.695-16.393-26.918-9.408-46.65 2.754-24.04 14.819-29.927 22.84-18 38.699 5.415 7.2 6.28 8.61 10.583 7.247 18.483-15.442 28.832-13.91 49.235-3.08 34.332 18.035 54.804 21.81 77.258 14.25 73.885-24.88 78.675-128.008 7.644-164.554-5.041-2.594-5.374-2.984-4.96-5.798 3.782-25.68 2.69-36.65-4.832-48.539-4.793-7.576-14.11-14.186-20.082-14.248z" fill="#007b6a"/><ellipse cx="159.599" cy="219.234" rx="14.425" ry="10.003" transform="matrix(.91553 -.40225 .37306 .9278 0 0)" fill="#fff" fill-rule="evenodd"/><path d="M250.426 88.647c-46.022.807-91.176 26.268-112.065 71.991-10.913 23.888-12.826 94.047-3.14 115.186 8.29 18.091 14.49 22.874 69.155 53.334 3.82 2.128 6.944 4.351 6.944 4.942 0 2.905-75.72 45.866-83.865 47.582-56.296 11.86-74.697-70.897-19.941-89.682 8.025-2.754 8.762-4.272 5.773-11.873-4.266-10.85-4.532-13.48-4.552-44.744-.018-27.368.149-30.531 1.986-37.317 2.404-8.874 2.339-8.98-4.181-6.823-17.387 5.75-25.943 31.898-20.17 61.653.602 3.11.451 3.286-5.466 6.398-87.793 46.163-45.905 183.63 50.494 165.71 11.98-2.227 23.46-7.554 46.397-21.534 12.483-7.608 90.632-54.604 140.494-84.489 55.636-33.344 56.046-33.983 56.635-88.714.646-59.894-5.233-77.256-36.304-107.238-24.808-23.94-56.704-34.933-88.194-34.382zm5.797 28.073c16.215.443 32.274 5.04 46.829 13.756 7.262 4.349 7.117 4.922-3.448 8.732-.475.171-.664.264-1.182.45-12.795 4.572-26.33 10.892-36.747 17.158-9.92 5.967-7.18 6.23-22.094-2.12-10.736-6.009-23.492-12.068-31.891-15.31-2.033-.786-4.045-1.554-5.441-1.946-6.453-1.81-5.32-3.557 6.198-9.55 15.188-7.905 31.56-11.613 47.776-11.17zm-77.246 45.14c11.781.544 28.915 8.277 53.501 22.115 20.35 11.453 19.928 11.43 36.252 1.952 32.546-18.9 61.682-27.793 69.613-21.249 10.459 8.63 11.399 13.325 11.399 56.881 0 45.595.013 45.544-17.979 55.99-10.388 6.032-44.242 25.48-63.28 36.35-5.709 3.26-9.068 5.59-11.943 6.717-2.576 1.01-4.799 1.012-7.931-.12-4.628-1.673-11.287-5.865-24.365-13.312-76.478-43.55-68.834-34.38-69.273-83.113-.396-44.055 4.37-63.118 24.006-62.21z" fill="#007b6a"/><text style="-inkscape-font-specification:'OCR-A BT, Normal';font-variant-ligatures:normal;font-variant-caps:normal;font-variant-numeric:normal;font-variant-east-asian:normal" x="3.378" y="51.766" transform="scale(.93243 1.07247)" font-weight="400" font-size="72.87" font-family="OCR-A BT" fill="#007b6a" fill-rule="evenodd" stroke-width="6.488" stroke-dasharray="25.95 6.488"><tspan x="3.378" y="51.766">ROBOTCODEDEV</tspan></text></svg>