<svg viewBox="0 0 24 24" xmlns="http://www.w3.org/2000/svg"><path d="M6.53 10.621a2.645 2.645 0 012.64-2.643 2.645 2.645 0 012.644 2.643.96.959 0 01-.96.96.96.959 0 01-.958-.96.724.724 0 00-.725-.722.724.724 0 00-.724.722.959.959 0 11-1.917 0m10.942 4.441a.959.959 0 01-.959.96H7.618a.959.959 0 01-.959-.96.96.959 0 01.959-.96h8.895a.96.959 0 01.96.96m-4.158-3.903a.96.96 0 01.26-1.331l2.223-1.502a.956.956 0 011.332.255.96.96 0 01-.26 1.332l-2.223 1.502a.943.943 0 01-.535.167.965.964 0 01-.797-.423m6.09 5.905a.685.685 0 01-.2.484l-1.653 1.653a.685.685 0 01-.485.2H6.934a.685.685 0 01-.484-.2l-1.652-1.653a.685.685 0 01-.201-.484V6.937c0-.182.072-.355.2-.484L6.45 4.8a.685.685 0 01.484-.2h10.134c.181 0 .355.072.484.2l1.652 1.653a.684.684 0 01.201.484zM20.81 5.348L18.653 3.19a1.744 1.743 0 00-1.232-.51H6.579a1.743 1.743 0 00-1.233.51L3.189 5.348a1.744 1.744 0 00-.51 1.233v10.84c0 .462.184.906.51 1.232l2.159 2.158a1.743 1.743 0 001.233.51h10.84c.462 0 .906-.183 1.232-.51l2.158-2.158a1.744 1.743 0 00.511-1.233V6.581a1.744 1.744 0 00-.51-1.233" fill="#00bfa5"/></svg>