<svg viewBox="0 0 24 24" xmlns="http://www.w3.org/2000/svg"><path d="M6.09 1a2 2 0 00-2 2v18a2 2 0 002 2h11.82a2 2 0 002-2V3.72L16.92 1H6.09zm1.742 5.055h8.203a1.32 1.357 0 01.934.396l1.633 1.682a1.32 1.358 0 01.384.959v8.441a1.32 1.357 0 01-.384.961l-1.633 1.68a1.304 1.304 0 01-.934.398H7.832a1.32 1.357 0 01-.932-.398l-1.632-1.68a1.38 1.38 0 01-.387-.96V9.091a1.32 1.358 0 01.385-.96l1.632-1.679a1.32 1.357 0 01.934-.398zM8.1 7.55a.518.533 0 00-.366.154l-1.252 1.29a.535.535 0 00-.15.374v7.887a.518.533 0 00.15.377l1.252 1.287a.51.51 0 00.366.156h7.668a.518.533 0 00.367-.156l1.25-1.287a.542.542 0 00.152-.377V9.369a.517.532 0 00-.152-.375l-1.25-1.289a.511.511 0 00-.367-.154H8.1zm1.693 2.63c1.103 0 2 .922 2 2.057a.726.747 0 01-.727.748.726.747 0 01-.724-.748.548.564 0 00-.549-.562.548.564 0 00-.549.562.736.736 0 01-.724.748.738.738 0 01-.727-.748c0-1.135.898-2.056 2-2.056zm5.418.14c.233 0 .463.117.603.33a.726.747 0 01-.195 1.037l-1.683 1.17a.714.734 0 01-.405.128.73.751 0 01-.603-.328.726.747 0 01.197-1.037l1.682-1.17a.69.69 0 01.404-.13zm-6.594 4.628h6.73a.726.747 0 01.727.748.726.747 0 01-.726.748h-6.73a.726.747 0 01-.725-.748.726.747 0 01.724-.748z" fill="#00bfa5" fill-rule="evenodd"/></svg>