<svg viewBox="0 0 24 24" xmlns="http://www.w3.org/2000/svg"><path d="M3.03 2.563a2.278 2 0 00-2.28 2v14.562a2.278 2 0 002.28 2h17.94a2.278 2 0 002.28-2V4.562a2.278 2 0 00-2.28-2H3.03zM8.54 3.865h9.605a1.545 1.521 0 011.092.447l1.912 1.883a1.546 1.522 0 01.454 1.076v9.458a1.545 1.521 0 01-.454 1.076l-1.912 1.883c-.29.285-.682.447-1.092.447H8.543a1.545 1.52 0 01-1.094-.448l-1.912-1.882a1.509 1.509 0 01-.451-1.076V7.27a1.545 1.522 0 01.451-1.076l1.91-1.883a1.545 1.52 0 011.094-.447zm-6.918 1.28c.07 0 .147.08.23.242l2.78 5.263c.137.26.205.62.205 1.079v.875c0 .457-.068.815-.205 1.076l-2.78 5.263c-.08.162-.157.243-.23.243-.09 0-.171-.107-.244-.323a2.696 2.696 0 01-.106-.82c0-.43.054-.746.16-.943l2.594-4.942-2.593-4.9c-.107-.216-.16-.538-.16-.969 0-.332.035-.607.105-.822.073-.216.154-.322.244-.322zm7.232.398a.607.597 0 00-.43.174L6.964 7.16a.592.592 0 00-.178.422v8.836a.607.598 0 00.178.424l1.463 1.441a.613.613 0 00.43.174h8.978a.607.598 0 00.428-.174l1.465-1.441a.597.597 0 00.177-.424V7.582a.606.597 0 00-.177-.422l-1.465-1.443a.608.608 0 00-.428-.174H8.855zm1.983 2.947c1.291 0 2.342 1.035 2.342 2.307a.85.837 0 01-.85.838.85.837 0 01-.85-.838.642.632 0 00-.642-.631.641.632 0 00-.643.63c0 .464-.38.839-.85.839a.843.843 0 01-.849-.838c0-1.272 1.052-2.307 2.342-2.307zm6.346.158c.273 0 .54.13.705.368a.85.837 0 01-.229 1.162l-1.97 1.31a.836.823 0 01-.475.147.855.842 0 01-.705-.37.85.837 0 01.228-1.161l1.971-1.311c.145-.1.31-.145.475-.145zM9.46 13.834h7.883a.85.837 0 01.847.838.85.837 0 01-.847.838H9.46a.85.837 0 01-.85-.838.85.837 0 01.85-.838z" fill="#00bfa5" fill-rule="evenodd"/></svg>