<?xml version="1.0" encoding="UTF-8" standalone="no"?>
<svg
   viewBox="0 0 24 24"
   version="1.1"
   id="svg4"
   sodipodi:docname="robot-book.svg"
   inkscape:export-xdpi="1241"
   inkscape:export-ydpi="1241"
   inkscape:version="1.4 (86a8ad7, 2024-10-11)"
   inkscape:export-filename="robot-book.png"
   xmlns:inkscape="http://www.inkscape.org/namespaces/inkscape"
   xmlns:sodipodi="http://sodipodi.sourceforge.net/DTD/sodipodi-0.dtd"
   xmlns="http://www.w3.org/2000/svg"
   xmlns:svg="http://www.w3.org/2000/svg">
  <defs
     id="defs8">
    <inkscape:path-effect
       effect="fillet_chamfer"
       id="path-effect3"
       is_visible="true"
       lpeversion="1"
       nodesatellites_param="F,0,0,1,0,0,0,1 @ F,0,0,1,0,0,0,1 @ F,0,0,1,0,0,0,1 @ F,0,0,1,0,0,0,1 @ F,0,0,1,0,0,0,1 @ F,0,0,1,0,0,0,1 @ F,0,1,1,0,0,0,1 @ F,0,1,1,0,0,0,1"
       radius="0"
       unit="px"
       method="auto"
       mode="F"
       chamfer_steps="1"
       flexible="false"
       use_knot_distance="true"
       apply_no_radius="true"
       apply_with_radius="true"
       only_selected="true"
       hide_knots="false" />
    <inkscape:path-effect
       effect="fillet_chamfer"
       id="path-effect2"
       is_visible="true"
       lpeversion="1"
       nodesatellites_param="F,0,0,1,0,1,0,1 @ F,0,0,1,0,1,0,1 @ F,0,0,1,0,1,0,1 @ F,0,0,1,0,1,0,1"
       radius="1"
       unit="px"
       method="auto"
       mode="F"
       chamfer_steps="1"
       flexible="false"
       use_knot_distance="true"
       apply_no_radius="true"
       apply_with_radius="true"
       only_selected="false"
       hide_knots="false" />
    <inkscape:path-effect
       effect="fillet_chamfer"
       id="path-effect1"
       is_visible="true"
       lpeversion="1"
       nodesatellites_param="F,0,0,1,0,2,0,1 @ F,0,0,1,0,2,0,1 @ F,0,0,1,0,2,0,1 @ F,0,0,1,0,2,0,1"
       radius="2"
       unit="px"
       method="auto"
       mode="F"
       chamfer_steps="1"
       flexible="false"
       use_knot_distance="true"
       apply_no_radius="true"
       apply_with_radius="true"
       only_selected="false"
       hide_knots="false" />
  </defs>
  <sodipodi:namedview
     id="namedview6"
     pagecolor="#ffffff"
     bordercolor="#666666"
     borderopacity="1.0"
     inkscape:pageshadow="2"
     inkscape:pageopacity="0.0"
     inkscape:pagecheckerboard="0"
     showgrid="false"
     inkscape:zoom="45.254834"
     inkscape:cx="14.296815"
     inkscape:cy="6.993728"
     inkscape:window-width="3840"
     inkscape:window-height="2054"
     inkscape:window-x="5749"
     inkscape:window-y="-11"
     inkscape:window-maximized="1"
     inkscape:current-layer="svg4"
     inkscape:showpageshadow="2"
     inkscape:deskcolor="#d1d1d1" />
  <path
     id="rect1"
     style="fill:#00bfa5;fill-rule:evenodd;stroke-width:13.572;stroke-dasharray:54.288, 13.572;fill-opacity:1"
     d="M 6.0898438 1 C 4.9852754 1 4.0898438 1.8954316 4.0898438 3 L 4.0898438 21 C 4.0898438 22.104568 4.9852754 23 6.0898438 23 L 17.910156 23 C 19.014725 23 19.910156 22.104568 19.910156 21 L 19.910156 3.7207031 L 16.919922 1 L 6.0898438 1 z M 7.8320312 6.0546875 L 16.035156 6.0546875 A 1.3194189 1.3574988 0 0 1 16.96875 6.4511719 L 18.601562 8.1328125 A 1.3199258 1.3580203 0 0 1 18.986328 9.0917969 L 18.986328 17.533203 A 1.3194189 1.3574988 0 0 1 18.601562 18.494141 L 16.96875 20.173828 C 16.721359 20.428359 16.38495 20.572266 16.035156 20.572266 L 7.8320312 20.572266 A 1.3190809 1.357151 0 0 1 6.9003906 20.173828 L 5.2675781 18.494141 C 5.0201874 18.239783 4.8808594 17.893441 4.8808594 17.533203 L 4.8808594 9.0917969 A 1.3197568 1.3578465 0 0 1 5.265625 8.1328125 L 6.8984375 6.453125 A 1.3192499 1.3573249 0 0 1 7.8320312 6.0546875 z M 8.0996094 7.5507812 A 0.51810172 0.53305472 0 0 0 7.734375 7.7050781 L 6.4824219 8.9941406 C 6.385425 9.0939361 6.3320312 9.2276188 6.3320312 9.3691406 L 6.3320312 17.255859 A 0.51827071 0.53322857 0 0 0 6.4824219 17.632812 L 7.734375 18.919922 C 7.8315399 19.019724 7.9622265 19.076172 8.0996094 19.076172 L 15.767578 19.076172 A 0.51827071 0.53322857 0 0 0 16.134766 18.919922 L 17.384766 17.632812 C 17.481933 17.532669 17.537109 17.397034 17.537109 17.255859 L 17.537109 9.3691406 A 0.51742579 0.53235927 0 0 0 17.384766 8.9941406 L 16.134766 7.7050781 C 16.03777 7.6052827 15.90513 7.5507812 15.767578 7.5507812 L 8.0996094 7.5507812 z M 9.7929688 10.181641 C 10.895921 10.181641 11.792969 11.102976 11.792969 12.238281 A 0.72578177 0.74672864 0 0 1 11.066406 12.986328 A 0.72578177 0.74672864 0 0 1 10.341797 12.238281 A 0.5480117 0.56382793 0 0 0 9.7929688 11.675781 A 0.54784272 0.56365407 0 0 0 9.2441406 12.238281 C 9.2441406 12.651894 8.9203578 12.986328 8.5195312 12.986328 C 8.1187037 12.986328 7.7929688 12.651894 7.7929688 12.238281 C 7.7929688 11.102976 8.6912019 10.181641 9.7929688 10.181641 z M 15.210938 10.320312 C 15.444053 10.32052 15.674303 10.438173 15.814453 10.650391 A 0.72595075 0.7469025 0 0 1 15.619141 11.6875 L 13.935547 12.857422 A 0.71361499 0.73421072 0 0 1 13.53125 12.986328 A 0.73000634 0.75107513 0 0 1 12.927734 12.658203 A 0.72595075 0.7469025 0 0 1 13.125 11.621094 L 14.806641 10.451172 C 14.930336 10.362699 15.071068 10.320188 15.210938 10.320312 z M 8.6171875 14.949219 L 15.347656 14.949219 A 0.72578177 0.74672864 0 0 1 16.074219 15.697266 A 0.72561278 0.74655478 0 0 1 15.347656 16.445312 L 8.6171875 16.445312 A 0.72561278 0.74655478 0 0 1 7.8925781 15.697266 A 0.72578177 0.74672864 0 0 1 8.6171875 14.949219 z " />
</svg>
