<?xml version="1.0" encoding="UTF-8" standalone="no"?>
<svg
   viewBox="0 0 24 24"
   version="1.1"
   id="svg4"
   sodipodi:docname="robot-repl.svg"
   inkscape:export-xdpi="1241"
   inkscape:export-ydpi="1241"
   inkscape:version="1.4 (86a8ad7, 2024-10-11)"
   inkscape:export-filename="robot-repl.png"
   xmlns:inkscape="http://www.inkscape.org/namespaces/inkscape"
   xmlns:sodipodi="http://sodipodi.sourceforge.net/DTD/sodipodi-0.dtd"
   xmlns="http://www.w3.org/2000/svg"
   xmlns:svg="http://www.w3.org/2000/svg">
  <defs
     id="defs8">
    <inkscape:path-effect
       effect="fillet_chamfer"
       id="path-effect1"
       is_visible="true"
       lpeversion="1"
       nodesatellites_param="F,0,0,1,0,2,0,1 @ F,0,0,1,0,2,0,1 @ F,0,0,1,0,2,0,1 @ F,0,0,1,0,2,0,1"
       radius="2"
       unit="px"
       method="auto"
       mode="F"
       chamfer_steps="1"
       flexible="false"
       use_knot_distance="true"
       apply_no_radius="true"
       apply_with_radius="true"
       only_selected="false"
       hide_knots="false" />
  </defs>
  <sodipodi:namedview
     id="namedview6"
     pagecolor="#ffffff"
     bordercolor="#666666"
     borderopacity="1.0"
     inkscape:pageshadow="2"
     inkscape:pageopacity="0.0"
     inkscape:pagecheckerboard="0"
     showgrid="false"
     inkscape:zoom="16"
     inkscape:cx="6.5"
     inkscape:cy="3.21875"
     inkscape:window-width="3840"
     inkscape:window-height="2054"
     inkscape:window-x="5749"
     inkscape:window-y="-11"
     inkscape:window-maximized="1"
     inkscape:current-layer="svg4"
     inkscape:showpageshadow="2"
     inkscape:deskcolor="#d1d1d1" />
  <path
     id="rect1"
     style="fill:#00ab91;fill-rule:evenodd;stroke-width:5.66929;stroke-dasharray:22.6771, 5.66929;fill-opacity:1"
     d="M 3.9694661 2.59375 A 2 2 0 0 0 1.96875 4.59375 L 1.96875 19.15625 A 2 2 0 0 0 3.9694661 21.15625 L 19.718034 21.15625 A 2 2 0 0 0 21.71875 19.15625 L 21.71875 4.59375 A 2 2 0 0 0 19.718034 2.59375 L 3.9694661 2.59375 z M 8.8075304 3.8964844 L 17.238997 3.8964844 A 1.3561102 1.5211356 0 0 1 18.197352 4.34375 L 19.87576 6.2265625 A 1.3566313 1.52172 0 0 1 20.273503 7.3027344 L 20.273503 16.759766 A 1.3561102 1.5211356 0 0 1 19.87576 17.835938 L 18.197352 19.71875 C 17.943083 20.003962 17.598519 20.166016 17.238997 20.166016 L 8.8092448 20.166016 A 1.3557628 1.520746 0 0 1 7.8491753 19.71875 L 6.1707682 17.835938 C 5.9164985 17.550919 5.7747396 17.163426 5.7747396 16.759766 L 5.7747396 7.3027344 A 1.3564576 1.5215252 0 0 1 6.1707682 6.2265625 L 7.8474609 4.34375 A 1.3559365 1.5209407 0 0 1 8.8075304 3.8964844 z M 2.7350911 5.1757812 C 2.7965082 5.1757812 2.8636909 5.256414 2.9373915 5.4179688 L 5.3769965 10.681641 C 5.4973741 10.941923 5.5570095 11.302027 5.5570095 11.759766 L 5.5570095 12.634766 C 5.5570095 13.092504 5.4973741 13.450655 5.3769965 13.710938 L 2.9373915 18.974609 C 2.8661476 19.136164 2.7989649 19.216797 2.7350911 19.216797 C 2.6564772 19.216797 2.5846637 19.109938 2.5207899 18.894531 C 2.4593728 18.679125 2.4282118 18.406303 2.4282118 18.074219 C 2.4282118 17.643406 2.4754394 17.328315 2.5687934 17.130859 L 4.8455295 12.189453 L 2.5687934 7.2890625 C 2.4754394 7.0736562 2.4282118 6.7511251 2.4282118 6.3203125 C 2.4282118 5.9882278 2.4593728 5.7134532 2.5207899 5.4980469 C 2.5846637 5.2826406 2.6564772 5.1757812 2.7350911 5.1757812 z M 9.0835504 5.5742188 A 0.53250947 0.59731066 0 0 0 8.7063802 5.7480469 L 7.4222873 7.1914062 C 7.3225926 7.3032313 7.266276 7.4547001 7.266276 7.6132812 L 7.266276 16.449219 A 0.53268315 0.59750548 0 0 0 7.4222873 16.873047 L 8.7063802 18.314453 C 8.8062473 18.426284 8.9423463 18.488281 9.0835504 18.488281 L 16.964692 18.488281 A 0.53268315 0.59750548 0 0 0 17.340148 18.314453 L 18.625955 16.873047 C 18.725822 16.760833 18.781966 16.607411 18.781966 16.449219 L 18.781966 7.6132812 A 0.53181474 0.59653139 0 0 0 18.625955 7.1914062 L 17.340148 5.7480469 C 17.240454 5.6362218 17.106069 5.5742188 16.964692 5.5742188 L 9.0835504 5.5742188 z M 10.823676 8.5214844 C 11.957298 8.5214844 12.879254 9.5559691 12.879254 10.828125 A 0.74596482 0.83674145 0 0 1 12.133485 11.666016 A 0.74596482 0.83674145 0 0 1 11.387717 10.828125 A 0.56325121 0.63179337 0 0 0 10.823676 10.197266 A 0.56307752 0.63159855 0 0 0 10.259635 10.828125 C 10.259635 11.291596 9.9258404 11.666016 9.5138672 11.666016 C 9.101894 11.666016 8.768099 11.291596 8.768099 10.828125 C 8.768099 9.5559691 9.6912711 8.5214844 10.823676 8.5214844 z M 16.393793 8.6796875 C 16.633391 8.6799196 16.868649 8.8090763 17.012695 9.046875 A 0.74613851 0.83693627 0 0 1 16.812109 10.208984 L 15.08227 11.519531 A 0.73345971 0.82271458 0 0 1 14.665668 11.666016 A 0.75030688 0.84161189 0 0 1 14.046767 11.296875 A 0.74613851 0.83693627 0 0 1 14.247352 10.134766 L 15.977192 8.8242188 C 16.104327 8.725081 16.250036 8.6795482 16.393793 8.6796875 z M 9.6150174 13.865234 L 16.534375 13.865234 A 0.74596482 0.83674145 0 0 1 17.278429 14.703125 A 0.74579115 0.83654663 0 0 1 16.534375 15.541016 L 9.6150174 15.541016 A 0.74579115 0.83654663 0 0 1 8.8692491 14.703125 A 0.74596482 0.83674145 0 0 1 9.6150174 13.865234 z "
     transform="matrix(1.1392405,0,0,1,-1.4928797,-0.03125)" />
</svg>
