<?xml version="1.0" encoding="UTF-8" standalone="no"?>
<svg
   width="208.819"
   height="99.999794"
   version="1.1"
   id="svg3"
   viewBox="0 0 208.81943 100"
   xmlns="http://www.w3.org/2000/svg"
   xmlns:svg="http://www.w3.org/2000/svg">
  <defs
     id="defs3" />
  <g
     fill="#009770"
     id="g3"
     transform="matrix(1.8589523,0,0,1.8589523,-2.2597311,-1.8830791)">
    <path
       d="m 59.27,51.126 v -9.673 c 0,-3.57 -2.985,-6.1 -6.62,-6.1 -1.818,0 -3.604,0.647 -4.867,1.91 -1.264,-1.263 -3.05,-1.91 -4.867,-1.91 -3.635,0 -6.623,2.528 -6.623,6.1 v 9.673 h 6.16 v -7.98 c 0,-1.816 0.463,-2.247 1.11,-2.247 0.646,0 1.14,0.43 1.14,2.24 v 7.98 h 6.16 v -7.98 c 0,-1.82 0.492,-2.25 1.14,-2.25 0.648,0 1.11,0.43 1.11,2.24 v 7.98 h 6.158 z m 10.22,0.37 c 4.374,0 7.98,-3.327 7.98,-8.256 0,-4.437 -2.96,-7.886 -7.517,-7.886 -0.8,0 -1.448,0.03 -2.096,0.123 v 6.068 c 0.493,-0.185 0.986,-0.34 1.51,-0.34 1.08,0 2.25,0.833 2.25,2.22 0,1.354 -0.986,2.216 -2.157,2.216 -1.294,0 -2.28,-0.86 -2.28,-2.7 V 29.6 h -6.16 v 12.1 c 0,6.93 3.88,9.795 8.47,9.795 z m 16.932,0 c 4.804,0 7.27,-2.957 7.27,-6.53 v -9.242 h -6.16 v 8.287 c 0,1.36 -0.34,1.82 -1.11,1.82 -0.77,0 -1.11,-0.46 -1.11,-1.81 v -8.29 h -6.16 v 9.24 c 0,3.58 2.464,6.53 7.27,6.53 z m 20.506,-4.65 c 0,-4.314 -4.65,-4.653 -4.65,-5.76 0,-0.25 0.308,-0.433 0.555,-0.433 h 3.573 v -4.93 h -6.377 c -2.41,0 -4.84,1.51 -4.84,4.098 0,4.32 4.83,4.32 4.83,5.55 0,0.34 -0.22,0.59 -1.2,0.59 h -3.69 v 5.18 h 6.37 c 3.45,0 5.42,-1.57 5.42,-4.28 z M 27.52,32.582 c 0,1.883 1.555,3.416 3.465,3.416 1.91,0 3.466,-1.535 3.466,-3.418 0,-1.884 -1.55,-3.416 -3.46,-3.416 -1.91,0 -3.46,1.532 -3.46,3.416 z"
       id="path1" />
    <path
       d="m 34.406,35.284 -0.27,0.27 a 4.364,4.364 0 0 1 -3.105,1.286 c -1.15,0 -2.24,-0.443 -3.06,-1.248 l -0.27,-0.266 v 15.88 h 6.77 l -0.05,-15.922 z m -3.31,-30.682 2.135,2.134 -2.11,2.116 -2.13,-2.134 z"
       id="path2" />
    <path
       d="M 27.09,53.728 3.836,30.802 C 3.832,30.798 3.42,30.429 3.401,29.929 c -0.01,-0.32 0.15,-0.64 0.46,-0.95 C 5.32,27.52 29.58,3.42 29.6,3.39 c 0.003,-0.004 0.356,-0.407 0.84,-0.427 0.307,-0.01 0.624,0.14 0.936,0.45 L 56.958,29 c 0.002,0 0.182,0.163 0.188,0.377 0.005,0.155 -0.082,0.323 -0.258,0.5 l 0.54,0.54 c 0.338,-0.336 0.5,-0.7 0.482,-1.078 a 1.3,1.3 0 0 0 -0.433,-0.9 c 0,0 -23.98,-23.989 -25.563,-25.569 -0.47,-0.47 -0.985,-0.7 -1.51,-0.676 -0.822,0.035 -1.37,0.67 -1.37,0.674 0,0 -24.264,24.104 -25.722,25.563 -0.47,0.47 -0.7,0.98 -0.68,1.52 0.03,0.84 0.673,1.4 0.682,1.41 l 23.46,23.13 h 83.976 v -0.77 H 27.09 Z"
       id="path3" />
  </g>
</svg>
