<?xml version="1.0" encoding="UTF-8" standalone="no"?>
<svg
   width="100"
   height="100"
   viewBox="0 0 100 100"
   fill="none"
   version="1.1"
   id="svg11"
   sodipodi:docname="pcharm.svg"
   inkscape:version="1.4 (e7c3feb1, 2024-10-09)"
   xmlns:inkscape="http://www.inkscape.org/namespaces/inkscape"
   xmlns:sodipodi="http://sodipodi.sourceforge.net/DTD/sodipodi-0.dtd"
   xmlns="http://www.w3.org/2000/svg"
   xmlns:svg="http://www.w3.org/2000/svg">
  <sodipodi:namedview
     id="namedview11"
     pagecolor="#ffffff"
     bordercolor="#000000"
     borderopacity="0.25"
     inkscape:showpageshadow="2"
     inkscape:pageopacity="0.0"
     inkscape:pagecheckerboard="0"
     inkscape:deskcolor="#d1d1d1"
     inkscape:zoom="8.78"
     inkscape:cx="50"
     inkscape:cy="49.829157"
     inkscape:window-width="1800"
     inkscape:window-height="1024"
     inkscape:window-x="0"
     inkscape:window-y="44"
     inkscape:window-maximized="1"
     inkscape:current-layer="svg11" />
  <mask
     id="mask0"
     mask-type="alpha"
     maskUnits="userSpaceOnUse"
     x="0"
     y="0"
     width="100"
     height="100">
    <path
       fill-rule="evenodd"
       clip-rule="evenodd"
       d="M70.9119 99.3171C72.4869 99.9307 74.2828 99.8914 75.8725 99.1264L96.4608 89.2197C98.6242 88.1787 100 85.9892 100 83.5872V16.4133C100 14.0113 98.6243 11.8218 96.4609 10.7808L75.8725 0.873756C73.7862 -0.130129 71.3446 0.11576 69.5135 1.44695C69.252 1.63711 69.0028 1.84943 68.769 2.08341L29.3551 38.0415L12.1872 25.0096C10.589 23.7965 8.35363 23.8959 6.86933 25.2461L1.36303 30.2549C-0.452552 31.9064 -0.454633 34.7627 1.35853 36.417L16.2471 50.0001L1.35853 63.5832C-0.454633 65.2374 -0.452552 68.0938 1.36303 69.7453L6.86933 74.7541C8.35363 76.1043 10.589 76.2037 12.1872 74.9905L29.3551 61.9587L68.769 97.9167C69.3925 98.5406 70.1246 99.0104 70.9119 99.3171ZM75.0152 27.2989L45.1091 50.0001L75.0152 72.7012V27.2989Z"
       fill="white"
       id="path1" />
  </mask>
  <defs
     id="defs11">
    <filter
       id="filter0_d"
       x="-8.39411"
       y="15.8291"
       width="116.727"
       height="92.2456"
       filterUnits="userSpaceOnUse"
       color-interpolation-filters="sRGB">
      <feFlood
         flood-opacity="0"
         result="BackgroundImageFix"
         id="feFlood6" />
      <feColorMatrix
         in="SourceAlpha"
         type="matrix"
         values="0 0 0 0 0 0 0 0 0 0 0 0 0 0 0 0 0 0 127 0"
         id="feColorMatrix6" />
      <feOffset
         id="feOffset6" />
      <feGaussianBlur
         stdDeviation="4.16667"
         id="feGaussianBlur6" />
      <feColorMatrix
         type="matrix"
         values="0 0 0 0 0 0 0 0 0 0 0 0 0 0 0 0 0 0 0.25 0"
         id="feColorMatrix7" />
      <feBlend
         mode="overlay"
         in2="BackgroundImageFix"
         result="effect1_dropShadow"
         id="feBlend7" />
      <feBlend
         mode="normal"
         in="SourceGraphic"
         in2="effect1_dropShadow"
         result="shape"
         id="feBlend8" />
    </filter>
    <filter
       id="filter1_d"
       x="60.4167"
       y="-8.07558"
       width="47.9167"
       height="116.151"
       filterUnits="userSpaceOnUse"
       color-interpolation-filters="sRGB">
      <feFlood
         flood-opacity="0"
         result="BackgroundImageFix"
         id="feFlood8" />
      <feColorMatrix
         in="SourceAlpha"
         type="matrix"
         values="0 0 0 0 0 0 0 0 0 0 0 0 0 0 0 0 0 0 127 0"
         id="feColorMatrix8" />
      <feOffset
         id="feOffset8" />
      <feGaussianBlur
         stdDeviation="4.16667"
         id="feGaussianBlur8" />
      <feColorMatrix
         type="matrix"
         values="0 0 0 0 0 0 0 0 0 0 0 0 0 0 0 0 0 0 0.25 0"
         id="feColorMatrix9" />
      <feBlend
         mode="overlay"
         in2="BackgroundImageFix"
         result="effect1_dropShadow"
         id="feBlend9" />
      <feBlend
         mode="normal"
         in="SourceGraphic"
         in2="effect1_dropShadow"
         result="shape"
         id="feBlend10" />
    </filter>
    <linearGradient
       id="paint0_linear"
       x1="49.9392"
       y1="0.257812"
       x2="49.9392"
       y2="99.7423"
       gradientUnits="userSpaceOnUse">
      <stop
         stop-color="white"
         id="stop10" />
      <stop
         offset="1"
         stop-color="white"
         stop-opacity="0"
         id="stop11" />
    </linearGradient>
    <linearGradient
       id="a"
       x1="7.6214099"
       x2="61.247601"
       y1="64.7192"
       y2="39.855801"
       gradientUnits="userSpaceOnUse"
       gradientTransform="matrix(1.5267637,0,0,1.5071682,1.118451,1.5307542)">
      <stop
         offset=".1"
         stop-color="#00D886"
         id="stop1" />
      <stop
         offset=".59"
         stop-color="#F0EB18"
         id="stop2" />
    </linearGradient>
    <linearGradient
       id="b"
       x1="60.0186"
       x2="1.31317"
       y1="59.777802"
       y2="1.0722899"
       gradientUnits="userSpaceOnUse"
       gradientTransform="matrix(1.5267637,0,0,1.5071682,1.118451,1.5307542)">
      <stop
         offset=".3"
         stop-color="#F0EB18"
         id="stop3" />
      <stop
         offset=".7"
         stop-color="#00C4F4"
         id="stop4" />
    </linearGradient>
  </defs>
  <path
     fill="#00d886"
     d="m 10.003208,73.957873 0.0026,17.898376 c 0,3.390073 2.783931,6.13734 6.218096,6.13734 H 33.79181 c 1.814864,0 3.539954,-0.782974 4.721364,-2.143043 L 88.45239,38.334747 c 0.965678,-1.112742 1.496839,-2.529932 1.496839,-3.995201 V 16.44123 c 0,-3.390089 -2.783901,-6.13829 -6.218051,-6.13829 H 66.160571 c -1.814864,0 -3.539802,0.78308 -4.721364,2.143148 L 11.499986,69.961767 c -0.966472,1.112893 -1.496778,2.529933 -1.496778,3.996106 z"
     id="path5"
     style="stroke-width:1.51693" />
  <path
     fill="url(#a)"
     d="m 10.001712,76.109205 v 15.744783 c 0,3.390074 2.783932,6.138244 6.218096,6.138244 h 19.989323 c 0.294054,0 0.588109,-0.02095 0.879415,-0.06134 L 93.493,89.977413 c 3.063604,-0.432256 5.338635,-3.021721 5.338635,-6.076902 V 60.278664 c 0,-3.390978 -2.784817,-6.139148 -6.219883,-6.138244 l -28.303909,0.0069 c -0.667959,0 -1.331491,0.106105 -1.964945,0.314847 L 14.253108,70.28668 c -2.538764,0.835574 -4.251396,3.18133 -4.251396,5.823396 z"
     id="path6"
     style="fill:url(#a);stroke-width:1.51693" />
  <path
     fill="url(#b)"
     d="M 1.118451,7.6690434 V 58.86494 c 0,2.455328 1.48257,4.674784 3.7681598,5.641934 L 62.125945,88.724203 c 0.773764,0.327055 1.607835,0.49631 2.449845,0.49631 h 28.037489 c 3.43415,0 6.218051,-2.74817 6.218051,-6.138244 V 56.004486 c 0,-1.212668 -0.364133,-2.398206 -1.046444,-3.407557 L 65.10802,4.264049 C 63.954092,2.5576015 62.014033,1.5333842 59.93626,1.5333842 L 7.3365474,1.5307467 c -3.4341649,0 -6.2180964,2.7482006 -6.2180964,6.1382891 z"
     id="path7"
     style="fill:url(#b);stroke-width:1.51693" />
  <path
     fill="#000000"
     d="M 80.510165,19.616773 H 19.439616 v 60.286728 h 61.070549 z"
     id="path8"
     style="stroke-width:1.51693" />
  <path
     fill="#ffffff"
     fill-rule="evenodd"
     d="m 37.05282,27.103782 h -9.833427 v 22.615812 h 4.467463 v -8.545945 h 5.236189 c 1.635928,0 3.071085,-0.290733 4.303642,-0.872349 1.244007,-0.591865 2.198692,-1.421862 2.864056,-2.488033 0.675898,-1.066171 1.014229,-2.326164 1.014229,-3.71517 0,-1.389006 -0.33314,-2.611018 -0.998503,-3.666789 C 43.45164,29.375536 42.513596,28.557747 41.291574,27.976131 40.0694,27.394515 38.656227,27.103782 37.05282,27.103782 Z m 1.668295,9.99991 c -0.556658,0.26903 -1.210571,0.404072 -1.963724,0.404072 h -5.073283 v -6.736288 h 5.073283 c 0.753153,0 1.407066,0.139262 1.963724,0.419595 0.567193,0.268276 1.002931,0.656071 1.308894,1.163233 0.305964,0.494049 0.458488,1.098122 0.458488,1.77665 0,0.678527 -0.15344,1.27642 -0.458488,1.793078 -0.305047,0.507162 -0.741701,0.899176 -1.308894,1.17966 z"
     clip-rule="evenodd"
     id="path9"
     style="stroke-width:1.51693" />
  <path
     fill="#ffffff"
     d="m 52.085031,48.589369 c 1.778832,1.011762 3.764388,1.518773 5.956974,1.518773 v -0.0017 c 1.854101,0 3.556596,-0.339263 5.10565,-1.01779 1.549055,-0.678377 2.835964,-1.62518 3.861796,-2.842821 1.036215,-1.228041 1.729518,-2.633475 2.078536,-4.216303 h -4.680599 c -0.305964,0.817789 -0.763535,1.540477 -1.374545,2.164444 -0.600477,0.614322 -1.326453,1.088628 -2.176708,1.421863 -0.850407,0.333084 -1.777916,0.500982 -2.781763,0.500982 -1.352713,0 -2.574734,-0.333084 -3.665302,-1.001212 -1.091483,-0.668127 -1.947998,-1.582828 -2.569543,-2.745909 -0.611011,-1.172728 -0.916058,-2.493309 -0.916058,-3.957673 0,-1.464214 0.305047,-2.778766 0.916058,-3.941848 0.622461,-1.173481 1.47806,-2.094361 2.569543,-2.762489 1.090568,-0.667976 2.312589,-1.001211 3.665302,-1.001211 1.002931,0 1.93044,0.167898 2.781763,0.501133 0.851171,0.333084 1.576231,0.813419 2.176708,1.437386 0.61101,0.614473 1.068581,1.330981 1.374545,2.14877 h 4.680599 c -0.349781,-1.582828 -1.042321,-2.982234 -2.078536,-4.199875 -1.025832,-1.22789 -2.312741,-2.180721 -3.861796,-2.859249 -1.549054,-0.678527 -3.251549,-1.01779 -5.10565,-1.01779 -2.193502,0 -4.179058,0.510628 -5.956974,1.534448 -1.77868,1.011611 -3.175211,2.412825 -4.189593,4.199875 -1.014229,1.776649 -1.521878,3.7637 -1.521878,5.96085 0,2.1973 0.507649,4.19038 1.521878,5.977429 1.015145,1.7768 2.410913,3.176055 4.189593,4.199875 z"
     id="path10"
     style="stroke-width:1.51693" />
  <path
     fill="#ffffff"
     d="m 27.064426,67.847663 h 24.42822 v 4.521504 h -24.42822 z"
     id="path11"
     style="stroke-width:1.51693" />
</svg>
