<?xml version="1.0" encoding="UTF-8" standalone="no"?>
<svg
   viewBox="0 0 117 24"
   version="1.1"
   id="svg329"
   width="300"
   height="100"
   xmlns="http://www.w3.org/2000/svg"
   xmlns:svg="http://www.w3.org/2000/svg"
   xmlns:rdf="http://www.w3.org/1999/02/22-rdf-syntax-ns#"
   xmlns:cc="http://creativecommons.org/ns#"
   xmlns:dc="http://purl.org/dc/elements/1.1/">
  <metadata
     id="metadata331">
    <rdf:RDF>
      <cc:Work
         rdf:about="">
        <dc:format>image/svg+xml</dc:format>
        <dc:type
           rdf:resource="http://purl.org/dc/dcmitype/StillImage" />
      </cc:Work>
    </rdf:RDF>
  </metadata>
  <defs
     id="defs236" />
  <g transform="matrix(0.14705883,0,0,-0.14705883,0.06452095,23.99729)">
    <g
       id="g12"
       transform="matrix(1.62912,0,0,1.6287137,-51.081466,-50.726406)">
      <path
         id="path22"
         style="fill:#00c0b5;fill-opacity:1;fill-rule:nonzero;stroke:none;stroke-width:0.858992"
         d="m 56.67432,87.411607 c 0,6.529191 5.307025,11.837587 11.826801,11.837587 6.527486,0 11.834503,-5.308396 11.834503,-11.837587 0,-2.378859 -1.922164,-4.301534 -4.292688,-4.301534 -2.371371,0 -4.293533,1.922675 -4.293533,4.301534 0,1.785219 -1.455819,3.234527 -3.248282,3.234527 -1.783909,0 -3.240563,-1.449308 -3.240563,-3.234527 0,-2.378859 -1.921322,-4.301534 -4.292693,-4.301534 -2.37137,0 -4.293545,1.922675 -4.293545,4.301534 m 48.99916,-19.890838 c 0,-2.380579 -1.92132,-4.301534 -4.29269,-4.301534 H 61.54761 c -2.37137,0 -4.293545,1.920955 -4.293545,4.301534 0,2.378859 1.922175,4.301535 4.293545,4.301535 h 39.83318 c 2.37137,0 4.29269,-1.922676 4.29269,-4.301535 M 87.060665,85.00182 c -1.326961,1.968208 -0.808195,4.637443 1.159486,5.96476 l 9.957874,6.726784 c 1.952225,1.35738 4.636235,0.80841 5.963205,-1.144324 1.32697,-1.967353 0.80821,-4.637446 -1.15949,-5.964761 l -9.957862,-6.726786 c -0.731768,-0.503435 -1.570892,-0.74742 -2.394563,-0.74742 -1.380218,0 -2.737257,0.67096 -3.56865,1.891747 M 114.32842,58.553438 c 0,-0.81185 -0.32295,-1.591058 -0.89753,-2.16666 l -7.40098,-7.402895 c -0.57459,-0.573887 -1.3536,-0.89777 -2.16696,-0.89777 H 58.485699 c -0.813359,0 -1.592365,0.323883 -2.166956,0.89777 l -7.400976,7.402895 c -0.574592,0.575602 -0.897532,1.35481 -0.897532,2.16666 v 45.359832 c 0,0.81357 0.32294,1.59278 0.897532,2.16666 l 7.400976,7.40462 c 0.574591,0.57388 1.353597,0.89691 2.166956,0.89691 h 45.377251 c 0.81336,0 1.59237,-0.32303 2.16696,-0.89691 l 7.40098,-7.40462 c 0.57458,-0.57388 0.89753,-1.35309 0.89753,-2.16666 z m 6.29903,52.479232 -9.6624,9.66492 c -1.4644,1.46477 -3.45099,2.28779 -5.5209,2.28779 H 56.897629 c -2.071621,0 -4.058213,-0.82388 -5.522605,-2.28951 l -9.655523,-9.66406 c -1.463548,-1.46478 -2.285498,-3.45017 -2.285498,-5.52147 V 56.958086 c 0,-2.071303 0.822808,-4.059266 2.287215,-5.522323 l 9.662396,-9.664919 c 1.464391,-1.464773 3.450124,-2.286937 5.520886,-2.286937 h 48.53965 c 2.06991,0 4.0565,0.822164 5.5209,2.286937 l 9.6624,9.664919 c 1.46439,1.463057 2.2872,3.45102 2.2872,5.522323 v 48.551394 c 0,2.07216 -0.82281,4.05841 -2.2872,5.52319" />
    </g>
  </g>
  <g
     id="text"
     style="font-size:9.83365px;line-height:1.25;font-family:'OCR A Std';-inkscape-font-specification:'OCR A Std';letter-spacing:-1.28px;stroke-width:0.922205"
     aria-label="ROBOT FRAMEWORK&#10;FOUNDATION"
     transform="translate(3.0279686)">
    <path
       style="fill:#00c0b5"
       d="m 25.356659,21.432745 c 0,0.314677 0.137671,0.491682 0.491683,0.491682 0.354011,0 0.491682,-0.177005 0.491682,-0.491682 V 17.75496 h 2.419078 c 0.255675,0 0.491682,-0.137671 0.491682,-0.491683 0,-0.354011 -0.236007,-0.491682 -0.491682,-0.491682 H 26.340024 V 15.257213 H 29.7228 c 0.255674,0 0.491682,-0.137671 0.491682,-0.491683 0,-0.354011 -0.236008,-0.491682 -0.491682,-0.491682 h -4.366141 z m 9.419005,-6.352538 c -0.236008,-0.462181 -0.639188,-0.806359 -1.189872,-0.806359 -0.550684,0 -0.953864,0.344178 -1.189872,0.806359 l -0.983365,1.956896 c -0.186839,0.383513 -0.255674,0.668689 -0.255674,1.091536 0,0.472015 0.127837,0.767024 0.32451,1.170204 l 0.904696,1.809391 c 0.236007,0.472016 0.629353,0.816193 1.199705,0.816193 0.570352,0 0.963698,-0.344177 1.199705,-0.816193 l 0.904696,-1.809391 c 0.196673,-0.40318 0.32451,-0.698189 0.32451,-1.170204 0,-0.422847 -0.06883,-0.708023 -0.255674,-1.091536 z m 0.0295,2.251906 c 0.147504,0.285176 0.226174,0.472015 0.226174,0.796526 0,0.255674 -0.059,0.43268 -0.167173,0.64902 l -0.94403,1.868394 c -0.06883,0.137671 -0.137671,0.295009 -0.334344,0.295009 -0.196673,0 -0.265509,-0.157338 -0.334344,-0.295009 l -0.94403,-1.868394 c -0.108171,-0.21634 -0.167172,-0.393346 -0.167172,-0.64902 0,-0.324511 0.07867,-0.51135 0.226173,-0.796526 l 0.885029,-1.779891 c 0.07867,-0.157338 0.127837,-0.295009 0.334344,-0.295009 0.206507,0 0.255675,0.137671 0.334344,0.295009 z m 5.416709,4.592314 c 0.491682,0 0.875194,-0.118004 1.219372,-0.501516 0.324511,-0.363845 0.373679,-0.717856 0.373679,-1.170204 V 14.76553 c 0,-0.314676 -0.137671,-0.491682 -0.491683,-0.491682 -0.354011,0 -0.491682,0.177006 -0.491682,0.491682 v 5.487177 c 0,0.550684 -0.167172,0.688355 -0.609686,0.688355 h -1.671721 c -0.442514,0 -0.609686,-0.137671 -0.609686,-0.688355 V 14.76553 c 0,-0.314676 -0.137671,-0.491682 -0.491683,-0.491682 -0.354011,0 -0.491682,0.177006 -0.491682,0.491682 v 5.487177 c 0,0.452348 0.04917,0.806359 0.373679,1.170204 0.344177,0.383512 0.72769,0.501516 1.219372,0.501516 z m 6.409906,-1.681554 h -0.01967 0.0098 l -2.566583,-5.969025 h -1.298042 v 7.158897 c 0,0.314677 0.137672,0.491682 0.491683,0.491682 0.354011,0 0.491682,-0.177005 0.491682,-0.491682 v -5.408508 h 0.01967 v 0.0098 l 2.566582,5.90019 h 1.298042 V 14.77533 c 0,-0.314677 -0.137671,-0.491682 -0.491682,-0.491682 -0.354012,0 -0.491683,0.177005 -0.491683,0.491682 z m 2.889463,0.698189 h -0.472016 c -0.255675,0 -0.491682,0.137671 -0.491682,0.491683 0,0.354011 0.236007,0.491682 0.491682,0.491682 h 1.632386 c 0.767025,0 1.209539,-0.226174 1.553717,-0.924363 l 0.894862,-1.789724 c 0.177006,-0.354011 0.285176,-0.688356 0.285176,-1.081701 0,-0.452348 -0.09834,-0.737524 -0.29501,-1.140704 L 52.254996,15.257213 C 51.920652,14.588525 51.53714,14.273848 50.770115,14.273848 h -1.642219 c -0.304844,0 -0.570352,0.137671 -0.570352,0.491682 0,0.373679 0.275342,0.491683 0.599853,0.491683 h 0.363845 z m 0.983365,-5.683849 h 0.118003 c 0.452348,0 0.540851,-0.0098 0.747358,0.413013 l 0.816193,1.661887 c 0.137671,0.285176 0.245841,0.472015 0.245841,0.806359 0,0.245841 -0.07867,0.413013 -0.18684,0.639187 l -0.865361,1.75039 c -0.177005,0.363845 -0.275342,0.413013 -0.688355,0.413013 h -0.186839 z m 3.853157,6.175532 c -0.06883,0.236007 0.196673,0.491682 0.472016,0.491682 0.304843,0 0.462181,-0.255675 0.531017,-0.491682 l 0.373678,-1.180038 h 2.094568 l 0.363845,1.180038 c 0.06883,0.236007 0.226174,0.491682 0.531017,0.491682 0.275342,0 0.540851,-0.255675 0.472015,-0.491682 l -1.897894,-6.657381 c -0.06884,-0.255675 -0.18684,-0.501516 -0.51135,-0.501516 -0.314677,0 -0.422847,0.236007 -0.501516,0.501516 z M 57.5537,19.269342 h -1.543882 l 0.767024,-2.664919 h 0.01967 z m 4.541514,-4.012129 v 6.175532 c 0,0.314677 0.137671,0.491682 0.491682,0.491682 0.354012,0 0.491683,-0.177005 0.491683,-0.491682 v -6.175532 h 0.953864 v 0.354011 c 0,0.314677 0.137671,0.491683 0.491682,0.491683 0.354012,0 0.491683,-0.177006 0.491683,-0.491683 v -1.337376 h -4.857823 v 1.337376 c 0,0.314677 0.137671,0.491683 0.491682,0.491683 0.354012,0 0.491683,-0.177006 0.491683,-0.491683 v -0.354011 z m 6.783585,0 h 1.445547 c 0.255675,0 0.491682,-0.137671 0.491682,-0.491683 0,-0.354011 -0.236007,-0.491682 -0.491682,-0.491682 h -3.874458 c -0.255675,0 -0.491683,0.137671 -0.491683,0.491682 0,0.354012 0.236008,0.491683 0.491683,0.491683 h 1.445546 v 5.683849 h -1.445546 c -0.255675,0 -0.491683,0.137671 -0.491683,0.491683 0,0.354011 0.236008,0.491682 0.491683,0.491682 h 3.874458 c 0.255675,0 0.491682,-0.137671 0.491682,-0.491682 0,-0.354012 -0.236007,-0.491683 -0.491682,-0.491683 H 68.8788 Z m 6.498414,-0.177006 c -0.236008,-0.462181 -0.639188,-0.806359 -1.189872,-0.806359 -0.550684,0 -0.953864,0.344178 -1.189871,0.806359 l -0.983365,1.956896 c -0.18684,0.383513 -0.255675,0.668689 -0.255675,1.091536 0,0.472015 0.127837,0.767024 0.32451,1.170204 l 0.904696,1.809391 c 0.236007,0.472016 0.629353,0.816193 1.199705,0.816193 0.570352,0 0.963698,-0.344177 1.199705,-0.816193 l 0.904696,-1.809391 c 0.196673,-0.40318 0.324511,-0.698189 0.324511,-1.170204 0,-0.422847 -0.06884,-0.708023 -0.255675,-1.091536 z m 0.0295,2.251906 c 0.147504,0.285176 0.226174,0.472015 0.226174,0.796526 0,0.255674 -0.059,0.43268 -0.167172,0.64902 l -0.944031,1.868394 c -0.06884,0.137671 -0.137671,0.295009 -0.334344,0.295009 -0.196673,0 -0.265508,-0.157338 -0.334344,-0.295009 l -0.94403,-1.868394 c -0.10817,-0.21634 -0.167172,-0.393346 -0.167172,-0.64902 0,-0.324511 0.07867,-0.51135 0.226174,-0.796526 l 0.885028,-1.779891 c 0.07867,-0.157338 0.127837,-0.295009 0.334344,-0.295009 0.206507,0 0.255675,0.137671 0.334344,0.295009 z m 6.026394,2.91076 h -0.01967 0.0098 l -2.566582,-5.969025 h -1.298042 v 7.158897 c 0,0.314677 0.137671,0.491682 0.491683,0.491682 0.354011,0 0.491682,-0.177005 0.491682,-0.491682 v -5.408508 h 0.01967 v 0.0098 l 2.566583,5.90019 h 1.298042 V 14.77533 c 0,-0.314677 -0.137671,-0.491682 -0.491683,-0.491682 -0.354011,0 -0.491682,0.177005 -0.491682,0.491682 z"/>
    <path
       d="m 26.220024,5.4825651 h 0.226174 l 2.714087,3.8744579 c 0.10817,0.1573384 0.236008,0.2753422 0.432681,0.2753422 0.275342,0 0.501516,-0.1868393 0.501516,-0.4621815 0,-0.1868393 -0.137671,-0.3736787 -0.245841,-0.5211834 L 27.63607,5.4825651 h 0.904695 c 0.786692,0 1.553717,-0.4720152 1.553717,-1.3963783 V 3.407665 c 0,-0.8751948 -0.776858,-1.4258792 -1.553717,-1.4258792 h -3.304106 v 7.1588969 c 0,0.3146768 0.137671,0.4916825 0.491683,0.4916825 0.354011,0 0.491682,-0.1770057 0.491682,-0.4916825 z m 0,-2.5174143 h 2.192904 c 0.295009,0 0.698189,0.049168 0.698189,0.4425142 v 0.6785218 c 0,0.393346 -0.432681,0.4130133 -0.708023,0.4130133 h -2.18307 z M 34.655663,2.7881451 C 34.419656,2.3259635 34.016476,1.9817858 33.465792,1.9817858 c -0.550685,0 -0.953864,0.3441777 -1.189872,0.8063593 l -0.983365,1.9568963 c -0.186839,0.3835123 -0.255675,0.6686881 -0.255675,1.0915351 0,0.4720152 0.127838,0.7670246 0.324511,1.1702043 l 0.904695,1.8093915 c 0.236008,0.4720152 0.629354,0.8161929 1.199706,0.8161929 0.570351,0 0.963697,-0.3441777 1.199705,-0.8161929 l 0.904696,-1.8093915 c 0.196673,-0.4031797 0.32451,-0.6981891 0.32451,-1.1702043 0,-0.422847 -0.06883,-0.7080228 -0.255675,-1.0915351 z m 0.0295,2.2519057 c 0.147505,0.2851759 0.226174,0.4720152 0.226174,0.7965257 0,0.2556749 -0.059,0.4326806 -0.167172,0.6490208 l -0.94403,1.8683935 c -0.06884,0.1376711 -0.137671,0.2950095 -0.334344,0.2950095 -0.196673,0 -0.265509,-0.1573384 -0.334344,-0.2950095 l -0.94403,-1.8683935 c -0.10817,-0.2163402 -0.167172,-0.3933459 -0.167172,-0.6490208 0,-0.3245105 0.07867,-0.5113498 0.226174,-0.7965257 l 0.885029,-1.7798905 c 0.07867,-0.1573384 0.127837,-0.2950095 0.334344,-0.2950095 0.206506,0 0.255675,0.1376711 0.334344,0.2950095 z M 36.8371,9.6323652 h 2.753422 c 1.248874,0 2.104401,-0.757191 2.104401,-2.0453991 0,-0.7276901 -0.0885,-1.2488735 -0.649021,-1.7798906 0.521184,-0.4621815 0.649021,-0.9833649 0.649021,-1.5537166 0,-1.3865446 -0.658854,-2.2715731 -2.104401,-2.2715731 H 36.837101 Z M 37.820466,6.298758 h 1.770057 c 0.894862,0 1.121036,0.4621815 1.121036,1.2882081 0,0.7473574 -0.413013,1.0620342 -1.121036,1.0620342 h -1.770057 z m 0,-3.3336072 h 1.770057 c 0.894862,0 1.121036,0.4621815 1.121036,1.2882081 0,0.7473573 -0.413013,1.0620341 -1.121036,1.0620341 H 37.820466 Z M 46.256107,2.7881451 C 46.020099,2.3259635 45.616919,1.9817858 45.066235,1.9817858 c -0.550684,0 -0.953864,0.3441777 -1.189872,0.8063593 l -0.983365,1.9568963 c -0.186839,0.3835123 -0.255674,0.6686881 -0.255674,1.0915351 0,0.4720152 0.127837,0.7670246 0.32451,1.1702043 l 0.904696,1.8093915 c 0.236007,0.4720152 0.629353,0.8161929 1.199705,0.8161929 0.570352,0 0.963698,-0.3441777 1.199705,-0.8161929 l 0.904696,-1.8093915 c 0.196673,-0.4031797 0.32451,-0.6981891 0.32451,-1.1702043 0,-0.422847 -0.06883,-0.7080228 -0.255674,-1.0915351 z m 0.0295,2.2519057 c 0.147504,0.2851759 0.226174,0.4720152 0.226174,0.7965257 0,0.2556749 -0.059,0.4326806 -0.167173,0.6490208 l -0.94403,1.8683935 c -0.06883,0.1376711 -0.137671,0.2950095 -0.334344,0.2950095 -0.196673,0 -0.265509,-0.1573384 -0.334344,-0.2950095 L 43.787861,6.4855973 C 43.67969,6.2692571 43.620689,6.0922514 43.620689,5.8365765 c 0,-0.3245105 0.07867,-0.5113498 0.226173,-0.7965257 l 0.885029,-1.7798905 c 0.07867,-0.1573384 0.127837,-0.2950095 0.334344,-0.2950095 0.206507,0 0.255675,0.1376711 0.334344,0.2950095 z m 4.089165,-2.0749 v 6.1755319 c 0,0.3146768 0.137671,0.4916825 0.491682,0.4916825 0.354012,0 0.491683,-0.1770057 0.491683,-0.4916825 V 2.9651508 h 0.953864 v 0.3540114 c 0,0.3146767 0.137671,0.4916824 0.491682,0.4916824 0.354012,0 0.491683,-0.1770057 0.491683,-0.4916824 V 1.9817858 h -4.857823 v 1.3373764 c 0,0.3146767 0.137671,0.4916824 0.491683,0.4916824 0.354011,0 0.491682,-0.1770057 0.491682,-0.4916824 V 2.9651508 Z m 9.663214,6.1755319 c 0,0.3146768 0.137671,0.4916825 0.491682,0.4916825 0.354012,0 0.491683,-0.1770057 0.491683,-0.4916825 V 5.4628978 h 2.419078 c 0.255675,0 0.491682,-0.1376711 0.491682,-0.4916825 0,-0.3540114 -0.236007,-0.4916825 -0.491682,-0.4916825 h -2.419078 v -1.514382 h 3.382775 c 0.255675,0 0.491683,-0.1376711 0.491683,-0.4916825 0,-0.3540114 -0.236008,-0.4916825 -0.491683,-0.4916825 h -4.36614 z m 6.783585,-3.6581176 h 0.226174 l 2.714088,3.8744579 c 0.10817,0.1573384 0.236007,0.2753422 0.43268,0.2753422 0.275342,0 0.501516,-0.1868393 0.501516,-0.4621815 0,-0.1868393 -0.137671,-0.3736787 -0.245841,-0.5211834 l -2.21257,-3.1664352 h 0.904696 c 0.786692,0 1.553716,-0.4720152 1.553716,-1.3963783 V 3.407665 c 0,-0.8751948 -0.776858,-1.4258792 -1.553716,-1.4258792 h -3.304107 v 7.1588969 c 0,0.3146768 0.137672,0.4916825 0.491683,0.4916825 0.354011,0 0.491682,-0.1770057 0.491682,-0.4916825 z m 0,-2.5174143 h 2.192904 c 0.29501,0 0.698189,0.049168 0.698189,0.4425142 v 0.6785218 c 0,0.393346 -0.43268,0.4130133 -0.708022,0.4130133 h -2.183071 z m 4.816856,6.1755319 c -0.06884,0.2360076 0.196673,0.4916825 0.472015,0.4916825 0.304843,0 0.462182,-0.2556749 0.531017,-0.4916825 l 0.373679,-1.1800379 h 2.094567 l 0.363845,1.1800379 c 0.06884,0.2360076 0.226174,0.4916825 0.531017,0.4916825 0.275343,0 0.540851,-0.2556749 0.472016,-0.4916825 L 74.578689,2.4833019 c -0.06883,-0.2556748 -0.186839,-0.5015161 -0.51135,-0.5015161 -0.314676,0 -0.422847,0.2360076 -0.501516,0.5015161 z M 74.834363,6.9772798 H 73.29048 l 0.767025,-2.664919 h 0.01967 z M 79.86756,3.7125081 78.667855,1.9817858 h -1.229207 v 7.1588969 c 0,0.3146768 0.137671,0.4916825 0.491683,0.4916825 0.354011,0 0.491682,-0.1770057 0.491682,-0.4916825 V 3.3388295 h 0.01967 l 0.934196,1.3865446 v 0.1573384 c 0,0.3048431 0.137671,0.5900189 0.491683,0.5900189 0.373679,0 0.491682,-0.2851758 0.491682,-0.5900189 V 4.7253741 l 0.934197,-1.3865446 h 0.01967 v 5.8018532 c 0,0.3146768 0.137671,0.4916825 0.491683,0.4916825 0.354011,0 0.491682,-0.1770057 0.491682,-0.4916825 V 1.9817858 H 81.06727 Z m 4.354678,4.9364922 V 6.298758 h 1.445546 c 0.255675,0 0.491683,-0.1376711 0.491683,-0.4916825 0,-0.3540114 -0.236008,-0.4916825 -0.491683,-0.4916825 H 84.222238 V 2.9651508 h 3.382775 c 0.255675,0 0.491683,-0.1376711 0.491683,-0.4916825 0,-0.3540114 -0.236008,-0.4916825 -0.491683,-0.4916825 h -4.36614 v 7.6505794 h 4.36614 c 0.255675,0 0.491683,-0.1376711 0.491683,-0.4916825 0,-0.3540113 -0.236008,-0.4916824 -0.491683,-0.4916824 z m 8.592977,0.9833649 c 0.344177,0 0.43268,-0.059002 0.599852,-0.3540114 L 93.759245,8.6785012 C 93.887082,8.4621609 93.896916,8.4424936 93.896916,8.1769851 V 2.4734683 c 0,-0.3146768 -0.137671,-0.4916825 -0.491682,-0.4916825 -0.354012,0 -0.491683,0.1770057 -0.491683,0.4916825 V 8.1769851 L 92.648043,8.6490003 H 92.225196 L 91.959687,8.1769851 V 5.0793854 c 0,-0.3048431 -0.137671,-0.5801853 -0.491682,-0.5801853 -0.354012,0 -0.491683,0.2753422 -0.491683,0.5801853 V 8.1769851 L 90.710814,8.6490003 H 90.287967 L 90.022458,8.1769851 V 2.4734683 c 0,-0.3146768 -0.137671,-0.4916825 -0.491682,-0.4916825 -0.354012,0 -0.491683,0.1770057 -0.491683,0.4916825 v 5.7035168 c 0,0.2655085 0.0098,0.2851758 0.137671,0.5015161 l 0.344178,0.5998526 c 0.167172,0.2950095 0.255675,0.3540114 0.599853,0.3540114 h 0.737523 c 0.334344,0 0.531017,-0.068836 0.599853,-0.4228469 h 0.01967 c 0.06884,0.3540114 0.265509,0.4228469 0.599853,0.4228469 z M 98.458093,2.7881451 C 98.222085,2.3259635 97.818906,1.9817858 97.268221,1.9817858 c -0.550684,0 -0.953864,0.3441777 -1.189871,0.8063593 l -0.983365,1.9568963 c -0.18684,0.3835123 -0.255675,0.6686881 -0.255675,1.0915351 0,0.4720152 0.127837,0.7670246 0.32451,1.1702043 l 0.904696,1.8093915 c 0.236008,0.4720152 0.629354,0.8161929 1.199705,0.8161929 0.570352,0 0.963698,-0.3441777 1.199706,-0.8161929 l 0.904695,-1.8093915 c 0.196673,-0.4031797 0.324511,-0.6981891 0.324511,-1.1702043 0,-0.422847 -0.06884,-0.7080228 -0.255675,-1.0915351 z m 0.0295,2.2519057 c 0.147505,0.2851759 0.226174,0.4720152 0.226174,0.7965257 0,0.2556749 -0.059,0.4326806 -0.167172,0.6490208 l -0.944031,1.8683935 c -0.06883,0.1376711 -0.137671,0.2950095 -0.334344,0.2950095 -0.196673,0 -0.265508,-0.1573384 -0.334344,-0.2950095 l -0.94403,-1.8683935 c -0.10817,-0.2163402 -0.167172,-0.3933459 -0.167172,-0.6490208 0,-0.3245105 0.07867,-0.5113498 0.226174,-0.7965257 l 0.885028,-1.7798905 c 0.07867,-0.1573384 0.127838,-0.2950095 0.334344,-0.2950095 0.206507,0 0.255675,0.1376711 0.334344,0.2950095 z m 3.135307,0.4425143 h 0.22617 l 2.71409,3.8744579 c 0.10817,0.1573384 0.23601,0.2753422 0.43268,0.2753422 0.27534,0 0.50152,-0.1868393 0.50152,-0.4621815 0,-0.1868393 -0.13767,-0.3736787 -0.24584,-0.5211834 l -2.21258,-3.1664352 h 0.9047 c 0.78669,0 1.55372,-0.4720152 1.55372,-1.3963783 V 3.407665 c 0,-0.8751948 -0.77686,-1.4258792 -1.55372,-1.4258792 h -3.30411 v 7.1588969 c 0,0.3146768 0.13768,0.4916825 0.49169,0.4916825 0.35401,0 0.49168,-0.1770057 0.49168,-0.4916825 z m 0,-2.5174143 h 2.1929 c 0.29501,0 0.69819,0.049168 0.69819,0.4425142 v 0.6785218 c 0,0.393346 -0.43268,0.4130133 -0.70802,0.4130133 h -2.18307 z m 4.81686,6.1755319 c 0,0.3146768 0.13767,0.4916825 0.49168,0.4916825 0.35401,0 0.49168,-0.1770057 0.49168,-0.4916825 v -2.271573 l 2.87143,2.468246 c 0.15734,0.1180038 0.32451,0.2950095 0.53102,0.2950095 0.28517,0 0.47201,-0.2360076 0.47201,-0.5113498 0,-0.1770056 -0.118,-0.3146767 -0.24584,-0.4228469 l -3.37294,-2.891093 3.39261,-2.891093 c 0.118,-0.1081701 0.22617,-0.2458412 0.22617,-0.4130133 0,-0.2753421 -0.18684,-0.5113497 -0.47201,-0.5113497 -0.15734,0 -0.28518,0.098336 -0.40318,0.196673 l -2.99927,2.5469152 V 2.4734683 c 0,-0.3146768 -0.13767,-0.4916825 -0.49168,-0.4916825 -0.35401,0 -0.49168,0.1770057 -0.49168,0.4916825 z"
       style="font-size:9.83365px;line-height:1.25;font-family:'OCR A Std';-inkscape-font-specification:'OCR A Std';letter-spacing:-1.28px;fill:var(--vp-c-text-1);fill-opacity:1;stroke-width:0.922205" />
  </g>
</svg>
